<?xml version="1.0" encoding="UTF-8" standalone="no"?>
<svg
   xmlns:dc="http://purl.org/dc/elements/1.1/"
   xmlns:cc="http://creativecommons.org/ns#"
   xmlns:rdf="http://www.w3.org/1999/02/22-rdf-syntax-ns#"
   xmlns:svg="http://www.w3.org/2000/svg"
   xmlns="http://www.w3.org/2000/svg"
   xmlns:sodipodi="http://sodipodi.sourceforge.net/DTD/sodipodi-0.dtd"
   xmlns:inkscape="http://www.inkscape.org/namespaces/inkscape"
   height="209.22093pt"
   viewBox="1 0 201.01954 209.22094"
   width="200.62732pt"
   version="1.1"
   id="svg24"
   sodipodi:docname="icone-aviao.svg"
   inkscape:version="1.0.2-2 (e86c870879, 2021-01-15)">
  <metadata
     id="metadata30">
    <rdf:RDF>
      <cc:Work
         rdf:about="">
        <dc:format>image/svg+xml</dc:format>
        <dc:type
           rdf:resource="http://purl.org/dc/dcmitype/StillImage" />
        <dc:title></dc:title>
      </cc:Work>
    </rdf:RDF>
  </metadata>
  <defs
     id="defs28">
    <clipPath
       clipPathUnits="userSpaceOnUse"
       id="clipPath857">
      <path
         style="fill:none;stroke:#000000;stroke-width:0.751466px;stroke-linecap:butt;stroke-linejoin:miter;stroke-opacity:1"
         d="m 253.26901,157.88712 35.12606,-30.65548 -1.27731,-12.13445 2.55463,-13.41177 3.83193,-14.689088 12.77311,-17.882359 12.13446,-10.218491 10.85715,-0.638656 14.05043,7.663869 8.94117,12.134459 7.66387,17.882357 1.91597,14.689089 -1.27731,8.94117 1.27731,7.66387 17.24371,10.21849 9.57983,8.30253 19.15967,15.96639 11.49581,13.41177 14.05042,14.05043 -1.27731,10.21849 -1.27731,17.2437 -6.38656,10.85715 -11.4958,10.21849 -21.71429,4.47059 -5.74791,14.68909 -4.47058,18.52101 -17.88237,8.94118 -26.82353,3.83194 h -40.23532 l -20.43698,-5.74791 -15.96639,-10.85715 -3.19328,-17.88235 -2.55463,-16.60506 -17.2437,-0.63865 -20.43699,-12.13445 -8.94118,-9.57985 -6.38655,-16.60504 10.85715,-17.88236 13.41177,-10.21849 25.54622,-9.57984 z"
         id="path859" />
    </clipPath>
    <clipPath
       clipPathUnits="userSpaceOnUse"
       id="clipPath861">
      <path
         style="fill:none;stroke:#000000;stroke-width:0.751466px;stroke-linecap:butt;stroke-linejoin:miter;stroke-opacity:1"
         d="m 253.26901,157.88712 35.12606,-30.65548 -1.27731,-12.13445 2.55463,-13.41177 3.83193,-14.689088 12.77311,-17.882359 12.13446,-10.218491 10.85715,-0.638656 14.05043,7.663869 8.94117,12.134459 7.66387,17.882357 1.91597,14.689089 -1.27731,8.94117 1.27731,7.66387 17.24371,10.21849 9.57983,8.30253 19.15967,15.96639 11.49581,13.41177 14.05042,14.05043 -1.27731,10.21849 -1.27731,17.2437 -6.38656,10.85715 -11.4958,10.21849 -21.71429,4.47059 -5.74791,14.68909 -4.47058,18.52101 -17.88237,8.94118 -26.82353,3.83194 h -40.23532 l -20.43698,-5.74791 -15.96639,-10.85715 -3.19328,-17.88235 -2.55463,-16.60506 -17.2437,-0.63865 -20.43699,-12.13445 -8.94118,-9.57985 -6.38655,-16.60504 10.85715,-17.88236 13.41177,-10.21849 25.54622,-9.57984 z"
         id="path863" />
    </clipPath>
    <clipPath
       clipPathUnits="userSpaceOnUse"
       id="clipPath865">
      <path
         style="fill:none;stroke:#000000;stroke-width:0.751466px;stroke-linecap:butt;stroke-linejoin:miter;stroke-opacity:1"
         d="m 253.26901,157.88712 35.12606,-30.65548 -1.27731,-12.13445 2.55463,-13.41177 3.83193,-14.689088 12.77311,-17.882359 12.13446,-10.218491 10.85715,-0.638656 14.05043,7.663869 8.94117,12.134459 7.66387,17.882357 1.91597,14.689089 -1.27731,8.94117 1.27731,7.66387 17.24371,10.21849 9.57983,8.30253 19.15967,15.96639 11.49581,13.41177 14.05042,14.05043 -1.27731,10.21849 -1.27731,17.2437 -6.38656,10.85715 -11.4958,10.21849 -21.71429,4.47059 -5.74791,14.68909 -4.47058,18.52101 -17.88237,8.94118 -26.82353,3.83194 h -40.23532 l -20.43698,-5.74791 -15.96639,-10.85715 -3.19328,-17.88235 -2.55463,-16.60506 -17.2437,-0.63865 -20.43699,-12.13445 -8.94118,-9.57985 -6.38655,-16.60504 10.85715,-17.88236 13.41177,-10.21849 25.54622,-9.57984 z"
         id="path867" />
    </clipPath>
    <clipPath
       clipPathUnits="userSpaceOnUse"
       id="clipPath869">
      <path
         style="fill:none;stroke:#000000;stroke-width:0.751466px;stroke-linecap:butt;stroke-linejoin:miter;stroke-opacity:1"
         d="m 253.26901,157.88712 35.12606,-30.65548 -1.27731,-12.13445 2.55463,-13.41177 3.83193,-14.689088 12.77311,-17.882359 12.13446,-10.218491 10.85715,-0.638656 14.05043,7.663869 8.94117,12.134459 7.66387,17.882357 1.91597,14.689089 -1.27731,8.94117 1.27731,7.66387 17.24371,10.21849 9.57983,8.30253 19.15967,15.96639 11.49581,13.41177 14.05042,14.05043 -1.27731,10.21849 -1.27731,17.2437 -6.38656,10.85715 -11.4958,10.21849 -21.71429,4.47059 -5.74791,14.68909 -4.47058,18.52101 -17.88237,8.94118 -26.82353,3.83194 h -40.23532 l -20.43698,-5.74791 -15.96639,-10.85715 -3.19328,-17.88235 -2.55463,-16.60506 -17.2437,-0.63865 -20.43699,-12.13445 -8.94118,-9.57985 -6.38655,-16.60504 10.85715,-17.88236 13.41177,-10.21849 25.54622,-9.57984 z"
         id="path871" />
    </clipPath>
    <clipPath
       clipPathUnits="userSpaceOnUse"
       id="clipPath873">
      <path
         style="fill:none;stroke:#000000;stroke-width:0.751466px;stroke-linecap:butt;stroke-linejoin:miter;stroke-opacity:1"
         d="m 253.26901,157.88712 35.12606,-30.65548 -1.27731,-12.13445 2.55463,-13.41177 3.83193,-14.689088 12.77311,-17.882359 12.13446,-10.218491 10.85715,-0.638656 14.05043,7.663869 8.94117,12.134459 7.66387,17.882357 1.91597,14.689089 -1.27731,8.94117 1.27731,7.66387 17.24371,10.21849 9.57983,8.30253 19.15967,15.96639 11.49581,13.41177 14.05042,14.05043 -1.27731,10.21849 -1.27731,17.2437 -6.38656,10.85715 -11.4958,10.21849 -21.71429,4.47059 -5.74791,14.68909 -4.47058,18.52101 -17.88237,8.94118 -26.82353,3.83194 h -40.23532 l -20.43698,-5.74791 -15.96639,-10.85715 -3.19328,-17.88235 -2.55463,-16.60506 -17.2437,-0.63865 -20.43699,-12.13445 -8.94118,-9.57985 -6.38655,-16.60504 10.85715,-17.88236 13.41177,-10.21849 25.54622,-9.57984 z"
         id="path875" />
    </clipPath>
    <clipPath
       clipPathUnits="userSpaceOnUse"
       id="clipPath877">
      <path
         style="fill:none;stroke:#000000;stroke-width:0.751466px;stroke-linecap:butt;stroke-linejoin:miter;stroke-opacity:1"
         d="m 253.26901,157.88712 35.12606,-30.65548 -1.27731,-12.13445 2.55463,-13.41177 3.83193,-14.689088 12.77311,-17.882359 12.13446,-10.218491 10.85715,-0.638656 14.05043,7.663869 8.94117,12.134459 7.66387,17.882357 1.91597,14.689089 -1.27731,8.94117 1.27731,7.66387 17.24371,10.21849 9.57983,8.30253 19.15967,15.96639 11.49581,13.41177 14.05042,14.05043 -1.27731,10.21849 -1.27731,17.2437 -6.38656,10.85715 -11.4958,10.21849 -21.71429,4.47059 -5.74791,14.68909 -4.47058,18.52101 -17.88237,8.94118 -26.82353,3.83194 h -40.23532 l -20.43698,-5.74791 -15.96639,-10.85715 -3.19328,-17.88235 -2.55463,-16.60506 -17.2437,-0.63865 -20.43699,-12.13445 -8.94118,-9.57985 -6.38655,-16.60504 10.85715,-17.88236 13.41177,-10.21849 25.54622,-9.57984 z"
         id="path879" />
    </clipPath>
    <clipPath
       clipPathUnits="userSpaceOnUse"
       id="clipPath881">
      <path
         style="fill:none;stroke:#000000;stroke-width:0.751466px;stroke-linecap:butt;stroke-linejoin:miter;stroke-opacity:1"
         d="m 253.26901,157.88712 35.12606,-30.65548 -1.27731,-12.13445 2.55463,-13.41177 3.83193,-14.689088 12.77311,-17.882359 12.13446,-10.218491 10.85715,-0.638656 14.05043,7.663869 8.94117,12.134459 7.66387,17.882357 1.91597,14.689089 -1.27731,8.94117 1.27731,7.66387 17.24371,10.21849 9.57983,8.30253 19.15967,15.96639 11.49581,13.41177 14.05042,14.05043 -1.27731,10.21849 -1.27731,17.2437 -6.38656,10.85715 -11.4958,10.21849 -21.71429,4.47059 -5.74791,14.68909 -4.47058,18.52101 -17.88237,8.94118 -26.82353,3.83194 h -40.23532 l -20.43698,-5.74791 -15.96639,-10.85715 -3.19328,-17.88235 -2.55463,-16.60506 -17.2437,-0.63865 -20.43699,-12.13445 -8.94118,-9.57985 -6.38655,-16.60504 10.85715,-17.88236 13.41177,-10.21849 25.54622,-9.57984 z"
         id="path883" />
    </clipPath>
    <clipPath
       clipPathUnits="userSpaceOnUse"
       id="clipPath885">
      <path
         style="fill:none;stroke:#000000;stroke-width:0.751466px;stroke-linecap:butt;stroke-linejoin:miter;stroke-opacity:1"
         d="m 253.26901,157.88712 35.12606,-30.65548 -1.27731,-12.13445 2.55463,-13.41177 3.83193,-14.689088 12.77311,-17.882359 12.13446,-10.218491 10.85715,-0.638656 14.05043,7.663869 8.94117,12.134459 7.66387,17.882357 1.91597,14.689089 -1.27731,8.94117 1.27731,7.66387 17.24371,10.21849 9.57983,8.30253 19.15967,15.96639 11.49581,13.41177 14.05042,14.05043 -1.27731,10.21849 -1.27731,17.2437 -6.38656,10.85715 -11.4958,10.21849 -21.71429,4.47059 -5.74791,14.68909 -4.47058,18.52101 -17.88237,8.94118 -26.82353,3.83194 h -40.23532 l -20.43698,-5.74791 -15.96639,-10.85715 -3.19328,-17.88235 -2.55463,-16.60506 -17.2437,-0.63865 -20.43699,-12.13445 -8.94118,-9.57985 -6.38655,-16.60504 10.85715,-17.88236 13.41177,-10.21849 25.54622,-9.57984 z"
         id="path887" />
    </clipPath>
    <clipPath
       clipPathUnits="userSpaceOnUse"
       id="clipPath889">
      <path
         style="fill:none;stroke:#000000;stroke-width:0.751466px;stroke-linecap:butt;stroke-linejoin:miter;stroke-opacity:1"
         d="m 253.26901,157.88712 35.12606,-30.65548 -1.27731,-12.13445 2.55463,-13.41177 3.83193,-14.689088 12.77311,-17.882359 12.13446,-10.218491 10.85715,-0.638656 14.05043,7.663869 8.94117,12.134459 7.66387,17.882357 1.91597,14.689089 -1.27731,8.94117 1.27731,7.66387 17.24371,10.21849 9.57983,8.30253 19.15967,15.96639 11.49581,13.41177 14.05042,14.05043 -1.27731,10.21849 -1.27731,17.2437 -6.38656,10.85715 -11.4958,10.21849 -21.71429,4.47059 -5.74791,14.68909 -4.47058,18.52101 -17.88237,8.94118 -26.82353,3.83194 h -40.23532 l -20.43698,-5.74791 -15.96639,-10.85715 -3.19328,-17.88235 -2.55463,-16.60506 -17.2437,-0.63865 -20.43699,-12.13445 -8.94118,-9.57985 -6.38655,-16.60504 10.85715,-17.88236 13.41177,-10.21849 25.54622,-9.57984 z"
         id="path891" />
    </clipPath>
    <clipPath
       clipPathUnits="userSpaceOnUse"
       id="clipPath893">
      <path
         style="fill:none;stroke:#000000;stroke-width:0.751466px;stroke-linecap:butt;stroke-linejoin:miter;stroke-opacity:1"
         d="m 253.26901,157.88712 35.12606,-30.65548 -1.27731,-12.13445 2.55463,-13.41177 3.83193,-14.689088 12.77311,-17.882359 12.13446,-10.218491 10.85715,-0.638656 14.05043,7.663869 8.94117,12.134459 7.66387,17.882357 1.91597,14.689089 -1.27731,8.94117 1.27731,7.66387 17.24371,10.21849 9.57983,8.30253 19.15967,15.96639 11.49581,13.41177 14.05042,14.05043 -1.27731,10.21849 -1.27731,17.2437 -6.38656,10.85715 -11.4958,10.21849 -21.71429,4.47059 -5.74791,14.68909 -4.47058,18.52101 -17.88237,8.94118 -26.82353,3.83194 h -40.23532 l -20.43698,-5.74791 -15.96639,-10.85715 -3.19328,-17.88235 -2.55463,-16.60506 -17.2437,-0.63865 -20.43699,-12.13445 -8.94118,-9.57985 -6.38655,-16.60504 10.85715,-17.88236 13.41177,-10.21849 25.54622,-9.57984 z"
         id="path895" />
    </clipPath>
    <clipPath
       clipPathUnits="userSpaceOnUse"
       id="clipPath899">
      <path
         style="fill:none;stroke:#000000;stroke-width:0.751466px;stroke-linecap:butt;stroke-linejoin:miter;stroke-opacity:1"
         d="m 208.69271,65.961989 -1.91596,208.840401 223.52948,2.55462 -3.19328,-213.310988 z"
         id="path901" />
    </clipPath>
    <clipPath
       clipPathUnits="userSpaceOnUse"
       id="clipPath903">
      <path
         style="fill:none;stroke:#000000;stroke-width:0.751466px;stroke-linecap:butt;stroke-linejoin:miter;stroke-opacity:1"
         d="m 487.1466,115.13848 -1.91596,208.8404 223.52948,2.55462 -3.19328,-213.31099 z"
         id="path905" />
    </clipPath>
  </defs>
  <sodipodi:namedview
     pagecolor="#ffffff"
     bordercolor="#666666"
     borderopacity="1"
     objecttolerance="10"
     gridtolerance="10"
     guidetolerance="10"
     inkscape:pageopacity="0"
     inkscape:pageshadow="2"
     inkscape:window-width="1920"
     inkscape:window-height="1001"
     id="namedview26"
     showgrid="false"
     fit-margin-top="0"
     fit-margin-left="0"
     fit-margin-right="0"
     fit-margin-bottom="0"
     inkscape:zoom="1.1766375"
     inkscape:cx="402.69941"
     inkscape:cy="207.53715"
     inkscape:window-x="-9"
     inkscape:window-y="-9"
     inkscape:window-maximized="1"
     inkscape:current-layer="svg24" />
  <path
     d="M 84.527344,422.86719 C 80.625,418.95703 74.292969,418.95312 70.386719,422.85547 66.476562,426.75781 66.472656,433.08984 70.375,437 l 0.371094,0.36719 c 1.953125,1.95703 4.515625,2.93359 7.074218,2.93359 2.558594,0 5.117188,-0.97266 7.066407,-2.92187 3.910156,-3.90235 3.914062,-10.23438 0.01172,-14.14063 z m 0,0"
     id="path2"
     clip-path="url(#clipPath893)"
     transform="translate(-301.7063,-115.0067)" />
  <path
     d="m 326.32031,341.15234 -10.08984,10.08985 h -15.96485 c -13.01171,0 -23.59375,10.58594 -23.59375,23.59375 v 15.96875 l -94.33984,94.33594 c -9.79687,9.79687 -25.73437,9.79687 -35.52734,0 l -33.62891,-33.625 c -3.90234,-3.90625 -10.23437,-3.90625 -14.140624,0 -3.90625,3.90234 -3.90625,10.23437 0,14.14062 l 33.625004,33.62891 c 8.80078,8.79296 20.35546,13.1914 31.90625,13.1914 11.55468,0 23.10937,-4.39843 31.90625,-13.1914 l 97.26953,-97.26954 c 1.875,-1.875 2.92968,-4.41796 2.92968,-7.07031 v -20.10937 c 0,-1.98438 1.61329,-3.59375 3.59375,-3.59375 H 320.375 c 2.65234,0 5.19531,-1.05469 7.07031,-2.92969 l 13.01953,-13.01953 c 3.90235,-3.90235 3.90235,-10.23438 0,-14.14063 -3.90625,-3.90234 -10.23828,-3.90234 -14.14453,0 z m 0,0"
     id="path6"
     clip-path="url(#clipPath889)"
     transform="translate(-301.7063,-115.0067)" />
  <path
     d="m 181.75391,242.18359 c -3.90625,-3.90625 -10.23829,-3.90625 -14.14454,0 -3.90625,3.90235 -3.90625,10.23438 0,14.14063 l 11.77344,11.77344 c 1.95313,1.95312 4.51172,2.92968 7.07031,2.92968 2.5586,0 5.11719,-0.97656 7.07032,-2.92968 3.90625,-3.90625 3.90625,-10.23829 0,-14.14454 z m 0,0"
     id="path8"
     clip-path="url(#clipPath885)"
     transform="translate(-301.7063,-115.0067)" />
  <path
     d="m 221.73437,310.44922 c 1.95313,1.95312 4.51172,2.92969 7.07032,2.92969 2.55859,0 5.12109,-0.97657 7.07031,-2.92969 3.90625,-3.90625 3.90625,-10.23828 0,-14.14453 l -15.21875,-15.21875 c -3.90625,-3.90625 -10.23828,-3.90625 -14.14453,0 -3.90625,3.90625 -3.90235,10.23828 0,14.14062 z m 0,0"
     id="path10"
     clip-path="url(#clipPath903)"
     transform="translate(-501.73514,-115.04799)" />
  <path
     d="m 266.37109,350.94531 c 2.5625,0 5.1211,-0.97656 7.07422,-2.92969 3.90235,-3.90625 3.90235,-10.23828 0,-14.14453 l -12.6914,-12.6914 c -3.90625,-3.90235 -10.23828,-3.90235 -14.14453,0 -3.90625,3.90625 -3.90625,10.23828 0,14.14453 l 12.6914,12.6914 c 1.95313,1.95313 4.51172,2.92969 7.07031,2.92969 z m 0,0"
     id="path12"
     clip-path="url(#clipPath877)"
     transform="translate(-301.7063,-115.0067)" />
  <path
     d="m 369.11328,226.47656 -15.19141,-9.48047 v -12.01172 l 58.37891,18.35547 c 0.98047,0.3086 1.9961,0.45703 3,0.45703 2.10156,0 4.17969,-0.66406 5.91797,-1.9375 2.56641,-1.88281 4.08203,-4.875 4.08203,-8.0625 v -22.39453 c 0,-2.98437 -1.33203,-5.8125 -3.63281,-7.71093 l -67.7461,-55.94922 v -14.90625 c 0,-17.945315 -8.71875,-34.878909 -23.32031,-45.308596 -3.47656,-2.480469 -8.14453,-2.480469 -11.62109,0 -14.60547,10.425781 -23.32422,27.363281 -23.32422,45.308596 v 14.90625 l -67.74609,55.94922 c -2.29688,1.89843 -3.62891,4.72656 -3.62891,7.71093 v 22.39453 c 0,3.1836 1.51562,6.17969 4.08203,8.0625 1.73828,1.27344 3.81641,1.9375 5.91797,1.9375 1.00391,0 2.01562,-0.14843 3,-0.46093 l 58.37891,-18.35547 v 11.98047 l -15.20704,9.52343 c -2.91796,1.82813 -4.6914,5.03125 -4.6914,8.47657 v 30.33593 c 0,3.23047 1.5625,6.26563 4.1914,8.14063 2.63282,1.87891 6.00782,2.36719 9.06641,1.3125 l 35.70703,-12.29688 35.84766,12.30079 c 1.05859,0.36328 2.15625,0.54297 3.24609,0.54297 2.0586,0 4.09375,-0.63282 5.8125,-1.86329 2.62891,-1.875 4.1875,-4.90625 4.1875,-8.13671 v -30.33594 c 0,-3.44922 -1.78125,-6.65625 -4.70703,-8.48438 z m 36.1875,-30.36328 v 4.05859 l -51.37891,-16.15625 v -30.33593 z m -161.02344,4.05859 v -4.05859 l 51.37891,-42.43359 v 30.33593 z m 109.54297,51.1211 -25.85547,-8.8711 c -1.05078,-0.35937 -2.14843,-0.54296 -3.24609,-0.54296 -1.10156,0 -2.19922,0.18359 -3.25391,0.54687 l -25.70312,8.85156 V 240.5 l 15.20312,-9.52344 c 2.91797,-1.82812 4.69141,-5.03125 4.69141,-8.47656 v -31.125 c 0,-0.0312 0,-0.0586 0,-0.0898 v -78.44922 c 0,-8.86328 3.32031,-17.347659 9.13281,-23.828128 5.8125,6.480469 9.13281,14.964848 9.13281,23.828128 v 78.4414 0.10938 31.15625 c 0,3.44922 1.77735,6.65625 4.70313,8.48437 l 15.19141,9.48047 v 10.78516 z m 0,0"
     id="path14"
     clip-path="url(#clipPath899)"
     transform="translate(-223.28125,-65.871495)" />
  <path
     d="m 150.23437,301.76562 c -3.90234,-3.90234 -10.23828,-3.90234 -14.14062,0 L 81.1875,356.67187 c -3.90625,3.90625 -3.90625,10.23829 0,14.14454 1.953125,1.95312 4.511719,2.92968 7.070312,2.92968 2.558594,0 5.121094,-0.98047 7.070313,-2.92968 l 54.906245,-54.90625 c 3.90625,-3.90625 3.90625,-10.23829 0,-14.14454 z m 0,0"
     id="path16"
     clip-path="url(#clipPath869)"
     transform="translate(-301.7063,-115.0067)" />
  <path
     d="m 111.4375,401.0625 c 1.95313,1.95312 4.51172,2.92969 7.07031,2.92969 2.5586,0 5.1211,-0.97657 7.07032,-2.92969 l 54.90624,-54.90234 c 3.90625,-3.90625 3.90625,-10.23829 0,-14.14454 -3.90625,-3.90625 -10.23828,-3.90625 -14.14453,0 l -54.90234,54.90625 c -3.90625,3.90625 -3.90625,10.23829 0,14.14063 z m 0,0"
     id="path18"
     clip-path="url(#clipPath865)"
     transform="translate(-301.7063,-115.0067)" />
  <path
     d="m 141.68359,417.16797 c -3.90234,3.90625 -3.90234,10.23828 0,14.14453 1.95313,1.95312 4.51172,2.92969 7.07422,2.92969 2.5586,0 5.11719,-0.97657 7.07031,-2.92969 l 54.90235,-54.90625 c 3.90625,-3.90234 3.90625,-10.23438 0,-14.14063 -3.90235,-3.90625 -10.23438,-3.90625 -14.14063,0 z m 0,0"
     id="path20"
     clip-path="url(#clipPath861)"
     transform="translate(-301.7063,-115.0067)" />
  <path
     d="m 361.76953,309.82031 c -2.62891,0 -5.21094,1.07031 -7.07031,2.92969 -1.85938,1.85937 -2.92969,4.44141 -2.92969,7.07031 0,2.62891 1.07031,5.21094 2.92969,7.07031 1.85937,1.85938 4.4414,2.92969 7.07031,2.92969 2.62891,0 5.21094,-1.07031 7.07031,-2.92969 1.8711,-1.85937 2.92969,-4.4414 2.92969,-7.07031 0,-2.6289 -1.05859,-5.21094 -2.92969,-7.07031 -1.85937,-1.85938 -4.4414,-2.92969 -7.07031,-2.92969 z m 0,0"
     id="path22"
     clip-path="url(#clipPath857)"
     transform="translate(-301.7063,-115.0067)" />
</svg>
