<svg height="512" viewBox="0 0 512 512" width="512" xmlns="http://www.w3.org/2000/svg"><g><path d="m498.06 192.27-44.67-11.91c12.36-20.82 18.61-38.35 18.61-52.36a96 96 0 0 0 -192 0c0 14.01 6.25 31.54 18.61 52.36l-42.61 11.36-117.94-31.45a7.98 7.98 0 0 0 -4.06 0c-.02 0-.04-.01-.06 0l-120 32a8 8 0 0 0 -5.94 7.73v272a8 8 0 0 0 10.06 7.73l117.94-30.47 117.94 30.47a8.037 8.037 0 0 0 2.06.27 7.643 7.643 0 0 0 2.02-.29c.02.01.03.02.04.02l117.94-31.45 117.94 31.45a8.008 8.008 0 0 0 10.06-7.73v-272a8 8 0 0 0 -5.94-7.73zm-370.06 241.58-104 27.74v-255.44l104-27.74zm120 27.74-104-27.74v-255.44l104 27.74zm120-27.74-104 27.74v-255.44l43.61-11.63q7.935 11.73 18.11 24.66a628.8 628.8 0 0 0 42.28 48.11zm-29.72-224.58q-11.745-14.91-20.32-28.07c-.08-.13-.16-.26-.25-.38-14.28-21.98-21.71-39.95-21.71-52.82a80 80 0 0 1 160 0c0 12.87-7.43 30.85-21.71 52.82-.09.13-.17.25-.25.38q-8.52 13.065-20.23 27.95c-14.88 18.9-29.92 35.14-37.81 43.39-7.87-8.22-22.85-24.39-37.72-43.27zm149.72 252.32-104-27.74v-166.56a628.8 628.8 0 0 0 42.28-48.11q10.185-12.93 18.11-24.66l43.61 11.63z"/><path d="m376 192a64 64 0 1 0 -64-64 64.072 64.072 0 0 0 64 64zm0-112a48 48 0 1 1 -48 48 48.055 48.055 0 0 1 48-48z"/><path d="m360 152a8 8 0 0 0 8-8v-8h16v8a8 8 0 0 0 16 0v-32a8 8 0 0 0 -16 0v8h-16v-8a8 8 0 0 0 -16 0v32a8 8 0 0 0 8 8z"/><path d="m73 215a24 24 0 0 0 -8 46.624v49.376a8 8 0 0 0 16 0v-49.376a24 24 0 0 0 -8-46.624zm0 32a8 8 0 1 1 8-8 8.009 8.009 0 0 1 -8 8z"/><path d="m312 280a24 24 0 0 0 -8 46.624v49.376a8 8 0 0 0 16 0v-49.376a24 24 0 0 0 -8-46.624zm0 32a8 8 0 1 1 8-8 8.009 8.009 0 0 1 -8 8z"/><path d="m213.657 265.343a8 8 0 0 0 -11.314 0l-10.343 10.344-10.343-10.344a8 8 0 0 0 -11.314 11.314l10.344 10.343-10.344 10.343a8 8 0 0 0 11.314 11.314l10.343-10.344 10.343 10.344a8 8 0 1 0 11.314-11.314l-10.344-10.343 10.344-10.343a8 8 0 0 0 0-11.314z"/><path d="m440 331.687-10.343-10.344a8 8 0 0 0 -11.314 11.314l10.344 10.343-10.344 10.343a8 8 0 0 0 11.314 11.314l10.343-10.344 10.343 10.344a8 8 0 0 0 11.314-11.314l-10.344-10.343 10.344-10.343a8 8 0 0 0 -11.314-11.314z"/></g></svg>