<?xml version="1.0" encoding="UTF-8" standalone="no"?>
<svg
   xmlns:dc="http://purl.org/dc/elements/1.1/"
   xmlns:cc="http://creativecommons.org/ns#"
   xmlns:rdf="http://www.w3.org/1999/02/22-rdf-syntax-ns#"
   xmlns:svg="http://www.w3.org/2000/svg"
   xmlns="http://www.w3.org/2000/svg"
   xmlns:sodipodi="http://sodipodi.sourceforge.net/DTD/sodipodi-0.dtd"
   xmlns:inkscape="http://www.inkscape.org/namespaces/inkscape"
   version="1.1"
   id="Capa_1"
   x="0px"
   y="0px"
   width="140.209"
   height="178.83099"
   viewBox="0 0 140.209 178.83099"
   xml:space="preserve"
   sodipodi:docname="pilha-de-moedas-com-seta-para-cima.svg"
   inkscape:version="1.0.2-2 (e86c870879, 2021-01-15)"><metadata
   id="metadata87"><rdf:RDF><cc:Work
       rdf:about=""><dc:format>image/svg+xml</dc:format><dc:type
         rdf:resource="http://purl.org/dc/dcmitype/StillImage" /><dc:title></dc:title></cc:Work></rdf:RDF></metadata><defs
   id="defs85">
		
		
	</defs><sodipodi:namedview
   pagecolor="#ffffff"
   bordercolor="#666666"
   borderopacity="1"
   objecttolerance="10"
   gridtolerance="10"
   guidetolerance="10"
   inkscape:pageopacity="0"
   inkscape:pageshadow="2"
   inkscape:window-width="1920"
   inkscape:window-height="1001"
   id="namedview83"
   showgrid="false"
   fit-margin-top="0"
   fit-margin-left="0"
   fit-margin-right="0"
   fit-margin-bottom="0"
   inkscape:zoom="4.3131115"
   inkscape:cx="77.633819"
   inkscape:cy="89.879203"
   inkscape:window-x="-9"
   inkscape:window-y="-9"
   inkscape:window-maximized="1"
   inkscape:current-layer="g50" />
<g
   id="g50"
   transform="translate(-15.302178,-3.0562977)">
	<g
   id="g44"
   transform="translate(15.302178,-0.46370233)">
			<g
   id="g14">
				<path
   d="m 91.733,47.389 c -18.389,0 -33.305,-5.964 -33.305,-13.317 v 13.317 c 0,7.365 14.916,13.32 33.305,13.32 18.396,0 33.302,-5.956 33.302,-13.32 V 34.071 c -0.006,7.36 -14.907,13.318 -33.302,13.318 z"
   id="path2" />
				<path
   d="m 91.733,3.52 c -18.389,0 -33.305,5.961 -33.305,13.323 v 13.32 c 0,7.365 14.916,13.317 33.305,13.317 18.396,0 33.302,-5.961 33.302,-13.317 V 16.843 C 125.029,9.48 110.128,3.52 91.733,3.52 Z m 0,23.305 c -18.301,0 -29.968,-5.915 -29.968,-9.989 0,-4.076 11.667,-9.995 29.968,-9.995 18.298,0 29.959,5.919 29.959,9.995 -0.006,4.074 -11.661,9.989 -29.959,9.989 z"
   id="path4" />
				<path
   d="m 94.272,15.308 c -3.848,-0.621 -5.44,-1.029 -5.44,-1.662 0,-0.536 0.95,-1.087 3.891,-1.087 3.255,0 5.35,0.451 6.524,0.654 l 1.322,-2.18 C 99.064,10.725 97.037,10.452 93.992,10.397 V 8.695 h -4.436 v 1.833 c -4.844,0.405 -7.651,1.739 -7.651,3.44 0,1.878 3.297,2.844 8.15,3.535 3.35,0.481 4.802,0.944 4.802,1.678 0,0.779 -1.766,1.199 -4.354,1.199 -2.936,0 -5.605,-0.401 -7.508,-0.849 l -1.352,2.256 c 1.696,0.426 4.658,0.773 7.693,0.837 v 1.833 h 4.424 v -1.964 c 5.213,-0.387 8.062,-1.857 8.062,-3.581 10e-4,-1.725 -2.167,-2.785 -7.55,-3.604 z"
   id="path6" />
				<path
   d="m 58.428,51.587 c 0.012,0 0.034,0.006 0.052,0.013 0,-0.07 -0.052,-0.131 -0.052,-0.195 z"
   id="path8" />
				<path
   d="m 91.733,64.73 c -6.929,0 -13.351,-0.843 -18.675,-2.29 1.09,2.016 1.726,4.235 1.726,6.686 v 7.015 c 4.99,1.19 10.732,1.915 16.949,1.915 18.396,0 33.302,-5.961 33.302,-13.326 V 51.404 C 125.029,58.77 110.128,64.73 91.733,64.73 Z"
   id="path10" />
				<path
   d="m 91.733,82.069 c -6.217,0 -11.959,-0.728 -16.949,-1.912 v 9.42 c 8.126,-4.926 20.371,-7.276 32.117,-7.276 5.943,0 12.008,0.612 17.61,1.827 0.262,-0.673 0.518,-1.352 0.518,-2.064 V 68.74 c 0,7.362 -14.901,13.329 -33.296,13.329 z"
   id="path12" />
			</g>
			<g
   id="g30">
				<path
   d="M 33.301,99.68 C 14.912,99.68 0,93.712 0,86.359 v 13.32 c 0,7.367 14.912,13.316 33.301,13.316 18.396,0 33.308,-5.949 33.308,-13.316 V 86.359 C 66.603,93.712 51.697,99.68 33.301,99.68 Z"
   id="path16" />
				<path
   d="M 33.301,117.009 C 14.912,117.009 0,111.054 0,103.698 v 13.311 c 0,7.368 14.912,13.329 33.301,13.329 18.396,0 33.308,-5.961 33.308,-13.329 v -13.311 c -0.006,7.362 -14.912,13.311 -33.308,13.311 z"
   id="path18" />
				<path
   d="M 33.301,134.351 C 14.912,134.351 0,128.396 0,121.034 v 13.316 c 0,7.368 14.912,13.323 33.301,13.323 18.396,0 33.308,-5.961 33.308,-13.323 v -13.316 c -0.006,7.362 -14.912,13.317 -33.308,13.317 z"
   id="path20" />
				<path
   d="M 33.301,151.693 C 14.912,151.693 0,145.726 0,138.369 v 13.324 c 0,7.355 14.912,13.322 33.301,13.322 18.396,0 33.308,-5.967 33.308,-13.322 v -13.324 c -0.006,7.357 -14.912,13.324 -33.308,13.324 z"
   id="path22" />
				<path
   d="M 33.301,169.028 C 14.912,169.028 0,163.067 0,155.712 v 13.316 c 0,7.362 14.912,13.323 33.301,13.323 18.396,0 33.308,-5.961 33.308,-13.323 v -13.316 c -0.006,7.355 -14.912,13.316 -33.308,13.316 z"
   id="path24" />
				<path
   d="M 33.301,55.801 C 14.912,55.801 0,61.762 0,69.121 v 13.323 c 0,7.365 14.912,13.32 33.301,13.32 18.396,0 33.308,-5.961 33.308,-13.32 V 69.121 C 66.603,61.762 51.697,55.801 33.301,55.801 Z m 0,23.315 c -18.295,0 -29.968,-5.919 -29.968,-9.995 0,-4.08 11.673,-9.989 29.968,-9.989 18.301,0 29.974,5.909 29.974,9.989 -0.006,4.076 -11.679,9.995 -29.974,9.995 z"
   id="path26" />
				<path
   d="m 35.837,67.599 c -3.845,-0.624 -5.435,-1.029 -5.435,-1.666 0,-0.536 0.953,-1.083 3.891,-1.083 3.255,0 5.349,0.447 6.528,0.654 l 1.315,-2.183 c -1.504,-0.304 -3.535,-0.579 -6.567,-0.636 v -1.696 h -4.445 v 1.833 c -4.844,0.405 -7.651,1.742 -7.651,3.443 0,1.87 3.306,2.844 8.15,3.535 3.349,0.487 4.801,0.947 4.801,1.684 0,0.779 -1.766,1.196 -4.354,1.196 -2.935,0 -5.599,-0.398 -7.499,-0.853 l -1.361,2.256 c 1.702,0.429 4.664,0.779 7.693,0.834 v 1.836 h 4.436 v -1.967 c 5.206,-0.387 8.056,-1.852 8.056,-3.578 0.002,-1.734 -2.168,-2.8 -7.558,-3.609 z"
   id="path28" />
			</g>
			<g
   id="g42">
				<path
   d="m 106.901,134.351 c -18.386,0 -33.301,-5.955 -33.301,-13.316 v 13.316 c 0,7.368 14.916,13.323 33.301,13.323 18.396,0 33.308,-5.955 33.308,-13.323 v -13.316 c -0.001,7.361 -14.913,13.316 -33.308,13.316 z"
   id="path32" />
				<path
   d="m 106.901,151.687 c -18.386,0 -33.301,-5.968 -33.301,-13.323 v 13.323 c 0,7.362 14.916,13.329 33.301,13.329 18.396,0 33.308,-5.967 33.308,-13.329 v -13.323 c -0.001,7.362 -14.913,13.323 -33.308,13.323 z"
   id="path34" />
				<path
   d="m 106.901,169.028 c -18.386,0 -33.301,-5.961 -33.301,-13.316 v 13.316 c 0,7.356 14.916,13.323 33.301,13.323 18.396,0 33.308,-5.967 33.308,-13.323 v -13.316 c -0.001,7.355 -14.913,13.316 -33.308,13.316 z"
   id="path36" />
				<path
   d="m 106.901,90.476 c -18.386,0 -33.301,5.967 -33.301,13.326 v 13.317 c 0,7.355 14.916,13.322 33.301,13.322 18.396,0 33.308,-5.967 33.308,-13.322 V 103.802 C 140.208,96.437 125.296,90.476 106.901,90.476 Z m 0,23.312 c -18.298,0 -29.964,-5.913 -29.964,-9.993 0,-4.079 11.667,-9.989 29.964,-9.989 18.305,0 29.971,5.91 29.971,9.989 0,4.08 -11.666,9.993 -29.971,9.993 z"
   id="path38" />
				<path
   d="m 109.44,102.268 c -3.848,-0.615 -5.438,-1.023 -5.438,-1.663 0,-0.536 0.95,-1.071 3.892,-1.071 3.257,0 5.34,0.444 6.527,0.651 l 1.321,-2.187 c -1.51,-0.304 -3.544,-0.578 -6.57,-0.639 v -1.696 h -4.445 v 1.836 c -4.847,0.402 -7.654,1.735 -7.654,3.44 0,1.869 3.301,2.838 8.154,3.525 3.343,0.487 4.804,0.95 4.804,1.688 0,0.779 -1.766,1.199 -4.359,1.199 -2.936,0 -5.603,-0.408 -7.502,-0.853 l -1.352,2.259 c 1.692,0.433 4.651,0.779 7.69,0.834 v 1.834 h 4.427 v -1.967 c 5.206,-0.385 8.062,-1.852 8.062,-3.575 0,-1.74 -2.167,-2.8 -7.557,-3.615 z"
   id="path40" />
			</g>
		</g>
</g>
<g
   id="g52"
   transform="translate(-15.302178,-3.0562977)">
</g>
<g
   id="g54"
   transform="translate(-15.302178,-3.0562977)">
</g>
<g
   id="g56"
   transform="translate(-15.302178,-3.0562977)">
</g>
<g
   id="g58"
   transform="translate(-15.302178,-3.0562977)">
</g>
<g
   id="g60"
   transform="translate(-15.302178,-3.0562977)">
</g>
<g
   id="g62"
   transform="translate(-15.302178,-3.0562977)">
</g>
<g
   id="g64"
   transform="translate(-15.302178,-3.0562977)">
</g>
<g
   id="g66"
   transform="translate(-15.302178,-3.0562977)">
</g>
<g
   id="g68"
   transform="translate(-15.302178,-3.0562977)">
</g>
<g
   id="g70"
   transform="translate(-15.302178,-3.0562977)">
</g>
<g
   id="g72"
   transform="translate(-15.302178,-3.0562977)">
</g>
<g
   id="g74"
   transform="translate(-15.302178,-3.0562977)">
</g>
<g
   id="g76"
   transform="translate(-15.302178,-3.0562977)">
</g>
<g
   id="g78"
   transform="translate(-15.302178,-3.0562977)">
</g>
<g
   id="g80"
   transform="translate(-15.302178,-3.0562977)">
</g>
</svg>
