<svg width="24" height="24" viewBox="0 0 24 24" fill="none" xmlns="http://www.w3.org/2000/svg">
<path d="M15.1 2.5H8.9C5.3 2.5 2.5 5.3 2.5 8.9V15.1C2.5 18.6 5.3 21.5 8.9 21.5H15.1C18.6 21.5 21.5 18.7 21.5 15.1V8.9C21.4 5.3 18.6 2.5 15.1 2.5ZM20.5 15.2C20.5 18.1 18 20.5 15.1 20.5H8.8C5.9 20.5 3.5 18.1 3.5 15.2V8.8C3.5 5.9 5.9 3.5 8.8 3.5H15.2C18.1 3.5 20.5 5.9 20.5 8.8V15.2Z" fill="#333333"/>
<path d="M11.9 8C9.30001 8 7.10001 10.1 7.10001 12.8C7.10001 15.4 9.20001 17.6 11.9 17.6C14.6 17.6 16.7 15.5 16.7 12.8C16.7 10.1 14.6 8 11.9 8ZM11.9 16.6C9.80001 16.6 8.00001 14.9 8.00001 12.7C8.00001 10.6 9.70001 8.8 11.9 8.8C14.1 8.8 15.8 10.5 15.8 12.7C15.8 14.9 14.1 16.6 11.9 16.6Z" fill="#333333"/>
<path d="M8.6 10.3H2.5V11.3H8C8.1 11 8.3 10.6 8.6 10.3Z" fill="#333333"/>
<path d="M15 10.3C15.2 10.6 15.5 10.9 15.6 11.3H21.4V10.3H15Z" fill="#333333"/>
<path d="M12 10.2C10.6 10.2 9.5 11.3 9.5 12.7C9.5 14.1 10.6 15.2 12 15.2C13.4 15.2 14.5 14.1 14.5 12.7C14.5 11.3 13.4 10.2 12 10.2ZM12 14.3C11.1 14.3 10.4 13.6 10.4 12.7C10.4 11.8 11.1 11.1 12 11.1C12.9 11.1 13.6 11.8 13.6 12.7C13.6 13.6 12.8 14.3 12 14.3Z" fill="#333333"/>
<path d="M16.9 5.5C16.1 5.5 15.4 6.2 15.4 7C15.4 7.8 16.1 8.5 16.9 8.5C17.7 8.5 18.5 7.8 18.5 7C18.5 6.2 17.8 5.5 16.9 5.5ZM16.9 7.5C16.6 7.5 16.3 7.3 16.3 6.9C16.3 6.5 16.5 6.3 16.9 6.3C17.3 6.3 17.5 6.7 17.5 7C17.5 7.3 17.3 7.5 16.9 7.5Z" fill="#333333"/>
</svg>
