<svg width="24" height="24" viewBox="0 0 24 24" fill="none" xmlns="http://www.w3.org/2000/svg">
<path d="M18.2 5.5H5.8C4 5.5 2.5 7 2.5 8.8V16C2.5 17.8 4 19.3 5.8 19.3H18.1C19.9 19.3 21.4 17.8 21.4 16V8.8C21.5 7 20 5.5 18.2 5.5ZM20.5 16.2C20.5 17.4 19.5 18.3 18.4 18.3H5.6C4.4 18.3 3.5 17.3 3.5 16.2V8.7C3.5 7.5 4.4 6.5 5.6 6.5H18.3C19.5 6.5 20.5 7.5 20.5 8.7V16.2Z" fill="#333333"/>
<path d="M15.8 12.3001C15.7 12.5001 15.3 12.6001 15.1 12.5001L9.7 9.10012C9.5 8.90012 9.4 8.60012 9.5 8.40012C9.6 8.20012 10 8.10012 10.2 8.20012L15.6 11.6001C15.9 11.8001 15.9 12.1001 15.8 12.3001Z" fill="#333333"/>
<path d="M15.8 11.8001C16 12.0001 15.9 12.3001 15.7 12.5001L10.3 16.0001C10.1 16.2001 9.8 16.1001 9.6 15.9001C9.5 15.6001 9.5 15.3001 9.8 15.2001L15.2 11.7001C15.3 11.5001 15.6 11.6001 15.8 11.8001Z" fill="#333333"/>
<path d="M10 16.1C9.7 16.1 9.5 15.9 9.5 15.6V8.69995C9.5 8.39995 9.7 8.19995 10 8.19995C10.3 8.19995 10.5 8.39995 10.5 8.69995V15.6C10.5 15.9 10.3 16.1 10 16.1Z" fill="#333333"/>
</svg>
