<svg width="24" height="24" viewBox="0 0 24 24" fill="none" xmlns="http://www.w3.org/2000/svg">
<path d="M9.4 19.5C7.3 19.5 5.1 19 2.8 18C2.6 17.9 2.5 17.7 2.5 17.4C2.6 17.2 2.8 17 3 17C4.3 17 5.6 16.8 6.8 16.2C5.5 16 4.4 15.5 3.8 14.2C3.7 14.1 3.7 13.9 3.8 13.8C3.9 13.7 3.9 13.6 4 13.5L4.7 13.3C3.5 12.7 2.7 11.5 2.5 10.2C2.5 10 2.5 9.9 2.6 9.8C2.7 9.7 2.9 9.6 3 9.7L4.4 9.9C3.8 8.7 3.6 7.3 4 5.7C4 5.5 4.2 5.4 4.4 5.3C4.6 5.2 4.8 5.3 4.9 5.4C7.2 8 9.4 9.1 11.7 8.8V8.5C11.7 6.3 13.6 4.5 15.8 4.5C16.7 4.5 17.6 4.8 18.3 5.4L20.1 4.8C20.3 4.7 20.5 4.8 20.6 4.9C20.7 5 20.8 5.3 20.7 5.4L20 6.8L21.2 7.3C21.4 7.5 21.5 7.6 21.5 7.8C21.5 8 21.4 8.2 21.3 8.3L19.8 9.3V9.7C19.8 12.9 18.1 16 15.4 17.8C13.7 18.9 11.6 19.5 9.4 19.5ZM5.2 17.8C8.9 18.9 12.2 18.6 14.8 16.9C17.3 15.3 18.8 12.5 18.8 9.6V9C18.8 8.8 18.9 8.7 19 8.6L20 7.9L19.1 7.5C19 7.4 18.9 7.3 18.8 7.2C18.8 7.1 18.8 6.9 18.8 6.8L19.2 6L18.2 6.3C18 6.4 17.8 6.3 17.7 6.2C17.2 5.8 16.5 5.5 15.7 5.5C14 5.5 12.6 6.9 12.6 8.5V9.3C12.6 9.5 12.4 9.7 12.2 9.8C9.7 10.3 7.3 9.4 4.8 6.9C4.7 8.3 5.1 9.4 6 10.1C6.1 10.3 6.2 10.5 6.1 10.7C6 10.9 5.8 11 5.6 11L3.7 10.7C4.1 11.8 5.2 12.7 6.5 12.7C6.7 12.7 6.9 12.9 7 13.1C7 13.3 6.9 13.6 6.7 13.6L5 14.3C5.6 15.1 6.7 15.3 8.5 15.5C8.7 15.5 8.9 15.7 8.9 15.9C9 16.1 8.9 16.3 8.7 16.4C7.7 17.1 6.5 17.6 5.2 17.8Z" fill="#333333"/>
</svg>
