<svg width="135" height="40" viewBox="0 0 135 40" fill="none" xmlns="http://www.w3.org/2000/svg">
<path d="M130 0H5C2.23858 0 0 2.23858 0 5V35C0 37.7614 2.23858 40 5 40H130C132.761 40 135 37.7614 135 35V5C135 2.23858 132.761 0 130 0Z" fill="black"/>
<path d="M30.1 19.7C30.1173 18.7137 30.3829 17.7477 30.8723 16.8913C31.3617 16.0349 32.0591 15.3156 32.9 14.8C32.3689 14.0426 31.6663 13.4213 30.8495 12.9869C30.0328 12.5525 29.125 12.3171 28.2 12.3C26.2 12.1 24.3 13.5 23.3 13.5C22.3 13.5 20.7 12.3 19.1 12.4C18.0308 12.4394 16.99 12.7548 16.0788 13.3155C15.1676 13.8763 14.417 14.6633 13.9 15.6C11.6 19.5 13.3 25.3 15.5 28.5C16.6 30.1 17.9 31.8 19.5 31.7C21.1 31.6 21.7 30.7 23.7 30.7C25.6 30.7 26.2 31.7 27.9 31.7C29.6 31.7 30.7 30.1 31.8 28.6C32.6077 27.5156 33.2171 26.2968 33.6 25C33.5 24.8 30.2 23.5 30.1 19.7Z" fill="white"/>
<path d="M26.9 10.2C27.3814 9.63924 27.7447 8.98707 27.9681 8.28256C28.1915 7.57806 28.2703 6.83572 28.2 6.10001C26.7581 6.29567 25.4217 6.96386 24.4 8.00001C23.9342 8.53052 23.5792 9.14886 23.3559 9.81864C23.1326 10.4884 23.0456 11.1961 23.1 11.9C23.8255 11.9616 24.5548 11.8379 25.2194 11.5405C25.8841 11.2432 26.4623 10.7819 26.9 10.2Z" fill="white"/>
<path d="M53.6 31.4H51.3L50.1 27.5H45.8L44.6 31.4H42.4L46.7 18.1H49.3L53.6 31.4ZM49.8 25.8L48.7 22.3C48.6 21.9 48.4 21.1 48 19.8C47.9 20.4 47.7 21.2 47.4 22.3L46.3 25.8H49.8Z" fill="white"/>
<path d="M64.7 26.5C64.7788 27.9181 64.3139 29.3128 63.4 30.4C63.0272 30.7985 62.5788 31.1187 62.0808 31.3419C61.5829 31.5651 61.0455 31.6868 60.5 31.7C59.9637 31.7455 59.4254 31.6382 58.9476 31.3904C58.4697 31.1427 58.0718 30.7646 57.8 30.3V35.4H55.7V25C55.7 24 55.7 22.9 55.6 21.8H57.5L57.6 23.3C57.9362 22.7597 58.4093 22.318 58.9713 22.0194C59.5332 21.7209 60.1641 21.5762 60.8 21.6C61.3361 21.5812 61.869 21.6891 62.3555 21.915C62.8421 22.1409 63.2684 22.4784 63.6 22.9C64.3623 23.9416 64.7499 25.2103 64.7 26.5ZM62.5 26.6C62.529 25.7912 62.3204 24.9916 61.9 24.3C61.6764 24.0112 61.3878 23.7791 61.0576 23.6228C60.7275 23.4664 60.3652 23.3901 60 23.4C59.492 23.4135 59.0016 23.5887 58.6 23.9C58.1649 24.2479 57.8788 24.7485 57.8 25.3C57.7321 25.4927 57.6982 25.6957 57.7 25.9V27.5C57.6838 28.1516 57.896 28.7884 58.3 29.3C58.5098 29.5404 58.7726 29.7287 59.0676 29.8502C59.3626 29.9716 59.6818 30.0229 60 30C60.3652 30.0099 60.7275 29.9336 61.0576 29.7772C61.3878 29.6209 61.6764 29.3888 61.9 29.1C62.3203 28.3354 62.5275 27.472 62.5 26.6Z" fill="white"/>
<path d="M75.7 26.5C75.7788 27.9181 75.3139 29.3128 74.4 30.4C74.0272 30.7985 73.5788 31.1187 73.0808 31.3419C72.5829 31.5651 72.0455 31.6868 71.5 31.7C70.9637 31.7455 70.4254 31.6382 69.9476 31.3904C69.4697 31.1427 69.0718 30.7646 68.8 30.3V35.4H66.7V25C66.7 24 66.7 22.9 66.6 21.8H68.5L68.6 23.3C68.9362 22.7597 69.4093 22.318 69.9713 22.0194C70.5332 21.7209 71.1641 21.5762 71.8 21.6C72.3361 21.5812 72.869 21.6891 73.3555 21.915C73.8421 22.1409 74.2684 22.4784 74.6 22.9C75.3623 23.9416 75.7499 25.2103 75.7 26.5ZM73.5 26.6C73.529 25.7912 73.3204 24.9916 72.9 24.3C72.6764 24.0112 72.3878 23.7791 72.0576 23.6228C71.7275 23.4664 71.3652 23.3901 71 23.4C70.492 23.4135 70.0016 23.5887 69.6 23.9C69.1649 24.2479 68.8788 24.7485 68.8 25.3C68.7321 25.4927 68.6982 25.6957 68.7 25.9V27.5C68.6837 28.1516 68.896 28.7884 69.3 29.3C69.5098 29.5404 69.7726 29.7287 70.0676 29.8502C70.3626 29.9716 70.6818 30.0229 71 30C71.3652 30.0099 71.7275 29.9336 72.0576 29.7772C72.3878 29.6209 72.6764 29.3888 72.9 29.1C73.3203 28.3354 73.5275 27.472 73.5 26.6Z" fill="white"/>
<path d="M88 27.7C88.0147 28.2258 87.915 28.7485 87.7078 29.2319C87.5006 29.7154 87.1909 30.148 86.8 30.5C85.7931 31.3375 84.508 31.7659 83.2 31.7C82.0152 31.745 80.8404 31.4686 79.8 30.9L80.3 29.1C81.2229 29.697 82.3008 30.0099 83.4 30C84.0677 30.015 84.7262 29.8417 85.3 29.5C85.5193 29.3164 85.6956 29.0869 85.8166 28.8277C85.9375 28.5686 86.0001 28.286 86 28C85.9977 27.7385 85.9435 27.4801 85.8405 27.2398C85.7375 26.9995 85.5877 26.782 85.4 26.6C84.8757 26.1457 84.2627 25.8051 83.6 25.6C81.3 24.7 80.1 23.5 80.1 21.8C80.0857 21.2889 80.1861 20.7811 80.3938 20.3139C80.6014 19.8467 80.9111 19.4319 81.3 19.1C82.2393 18.3717 83.4144 18.0156 84.6 18.1C85.6329 18.0652 86.6599 18.2706 87.6 18.7L87.1 20.4C86.3268 20.0024 85.4694 19.7966 84.6 19.8C83.946 19.7671 83.3035 19.9813 82.8 20.4C82.6221 20.5415 82.4829 20.7258 82.3955 20.9356C82.3081 21.1455 82.2752 21.374 82.3 21.6C82.2931 21.8483 82.3437 22.0948 82.4477 22.3203C82.5518 22.5458 82.7066 22.7442 82.9 22.9C83.4734 23.3366 84.1155 23.6745 84.8 23.9C85.7356 24.2536 86.587 24.7985 87.3 25.5C87.5602 25.7998 87.7565 26.1495 87.8768 26.5278C87.9972 26.9061 88.0391 27.305 88 27.7Z" fill="white"/>
<path d="M95.1 23.4H92.8V28.1C92.8 29.3 93.2 29.9 94 29.9C94.3037 29.9288 94.6101 29.8948 94.9 29.8L95 31.4C94.4533 31.5837 93.8744 31.6518 93.3 31.6C92.9303 31.6057 92.5631 31.538 92.2198 31.4006C91.8764 31.2633 91.5638 31.0591 91.3 30.8C90.7468 30.0528 90.4967 29.124 90.6 28.2V23.4H89.2V21.8H90.6V20L92.7 19.4V21.8H95.1V23.4Z" fill="white"/>
<path d="M105.7 26.5C105.74 27.1569 105.645 27.8151 105.421 28.4341C105.198 29.0531 104.85 29.62 104.4 30.1C103.96 30.5886 103.419 30.9758 102.815 31.2348C102.211 31.4938 101.557 31.6184 100.9 31.6C100.267 31.613 99.639 31.4954 99.054 31.2545C98.469 31.0136 97.94 30.6546 97.5 30.2C96.6483 29.2345 96.1851 27.9874 96.2 26.7C96.1377 25.3448 96.6038 24.0184 97.5 23C97.9539 22.536 98.4996 22.1718 99.1023 21.9307C99.7049 21.6897 100.351 21.577 101 21.6C101.633 21.587 102.261 21.7046 102.846 21.9455C103.431 22.1864 103.96 22.5454 104.4 23C104.842 23.4654 105.185 24.0154 105.408 24.617C105.632 25.2185 105.731 25.8591 105.7 26.5ZM103.5 26.6C103.516 25.7927 103.308 24.9968 102.9 24.3C102.729 23.9486 102.456 23.6562 102.118 23.4603C101.779 23.2643 101.39 23.1737 101 23.2C100.6 23.1939 100.205 23.2922 99.8543 23.4851C99.5036 23.6779 99.2092 23.9588 99 24.3C98.5796 24.9916 98.371 25.7912 98.4 26.6C98.3843 27.4073 98.5919 28.2032 99 28.9C99.1908 29.2419 99.4716 29.525 99.8118 29.7188C100.152 29.9125 100.539 30.0095 100.93 29.9992C101.322 29.9889 101.703 29.8717 102.032 29.6603C102.362 29.449 102.627 29.1514 102.8 28.8C103.296 28.1779 103.545 27.3945 103.5 26.6Z" fill="white"/>
<path d="M112.6 23.7C112.4 23.7 112.2 23.6 111.9 23.6C111.573 23.5839 111.247 23.6485 110.95 23.788C110.654 23.9274 110.396 24.1376 110.2 24.4C109.813 24.9541 109.636 25.6274 109.7 26.3V31.3H107.6V24.7C107.62 23.6989 107.587 22.6975 107.5 21.7H109.4L109.5 23.5H109.6C109.814 22.904 110.196 22.3829 110.7 22C111.146 21.7011 111.664 21.5284 112.2 21.5H112.7C112.619 22.2304 112.586 22.9653 112.6 23.7Z" fill="white"/>
<path d="M122.2 26.1C122.222 26.4366 122.188 26.7744 122.1 27.1H115.7C115.679 27.5103 115.749 27.9203 115.904 28.3006C116.06 28.6808 116.297 29.0221 116.6 29.3C117.199 29.7681 117.94 30.0154 118.7 30C119.589 29.9886 120.47 29.8193 121.3 29.5L121.6 31C120.586 31.4188 119.497 31.6231 118.4 31.6C117.757 31.6492 117.112 31.5584 116.507 31.334C115.903 31.1095 115.355 30.7568 114.9 30.3C114.032 29.3443 113.566 28.0906 113.6 26.8C113.551 25.4943 113.978 24.2153 114.8 23.2C115.206 22.6974 115.727 22.2992 116.318 22.0383C116.91 21.7774 117.555 21.6614 118.2 21.7C118.802 21.6616 119.404 21.7795 119.947 22.0423C120.49 22.3052 120.956 22.704 121.3 23.2C121.937 24.0282 122.256 25.0569 122.2 26.1ZM120.1 25.6C120.135 25.0382 119.995 24.4792 119.7 24C119.526 23.7087 119.276 23.4707 118.976 23.312C118.676 23.1533 118.339 23.0799 118 23.1C117.663 23.0917 117.33 23.1702 117.032 23.3278C116.735 23.4854 116.482 23.7169 116.3 24C115.897 24.4734 115.684 25.0788 115.7 25.7L120.1 25.6Z" fill="white"/>
<path d="M43.1 6.60001H46.2C47.8 6.60001 48.2 7.60001 48.2 8.30001C48.235 8.57545 48.1747 8.85456 48.0292 9.09102C47.8836 9.32748 47.6616 9.50708 47.4 9.60001C47.7247 9.71194 48.0011 9.93188 48.1831 10.2231C48.3651 10.5143 48.4417 10.8591 48.4 11.2C48.4069 11.4483 48.3563 11.6948 48.2523 11.9203C48.1482 12.1458 47.9934 12.3442 47.8 12.5C47.4 12.9 47.1 13.1 45.8 13.1H43.1V6.60001ZM44.4 9.10001H46C46.5 9.10001 47 8.90001 47 8.40001C47 7.90001 46.6 7.70001 46 7.70001H44.5V9.10001H44.4ZM44.4 11.9H46.1C46.8 11.9 47.1 11.6 47.1 11C47.1 10.4 46.6 10.2 46.1 10.2H44.4V11.9Z" fill="white"/>
<path d="M53.4 12.1C53.4 12.7 53.5 12.8 53.7 12.8V13H52.3C52.21 12.8137 52.1753 12.6054 52.2 12.4C52.0169 12.6199 51.7876 12.7967 51.5283 12.9177C51.2689 13.0387 50.9861 13.101 50.7 13.1C50.5074 13.1161 50.3136 13.0917 50.131 13.0283C49.9484 12.965 49.7811 12.8642 49.6398 12.7323C49.4985 12.6004 49.3864 12.4405 49.3107 12.2627C49.2349 12.0849 49.1972 11.8932 49.2 11.7C49.1873 11.3156 49.3275 10.9418 49.59 10.6607C49.8524 10.3795 50.2156 10.2138 50.6 10.2L51.7 10C51.7538 10.0053 51.8082 9.99857 51.8591 9.98033C51.91 9.9621 51.9563 9.9328 51.9945 9.89455C52.0328 9.8563 52.0621 9.81004 52.0803 9.75911C52.0985 9.70818 52.1053 9.65384 52.1 9.6C52.1 9.1 51.6 9 51.3 9C50.7 9 50.6 9.4 50.5 9.7H49.3C49.4 8.2 50.5 8 51.4 8C52.1 8 53.3 8.2 53.3 9.4V12.1H53.4ZM52.1 10.7C52 10.8 51.8 10.9 51.2 11C50.7 11.1 50.3 11.2 50.3 11.7C50.2966 11.7797 50.3098 11.8592 50.3387 11.9336C50.3677 12.0079 50.4118 12.0754 50.4682 12.1318C50.5246 12.1882 50.5921 12.2323 50.6664 12.2612C50.7407 12.2902 50.8203 12.3034 50.9 12.3C51.1645 12.3231 51.4275 12.2419 51.633 12.0737C51.8385 11.9056 51.9702 11.6638 52 11.4V10.7H52.1Z" fill="white"/>
<path d="M55.8 7.7H54.5V6.5H55.8V7.7ZM55.8 8.3V13.1H54.5V8.3H55.8Z" fill="white"/>
<path d="M61.3 13.1H59.7L58.9 11.7L58.1 13.1H56.6L58.2 10.7L56.6 8.39999H58.1L58.9 9.79999L59.7 8.39999H61.2L59.6 10.7L61.3 13.1Z" fill="white"/>
<path d="M66 11.7C65.8871 12.1598 65.6132 12.5639 65.2279 12.8391C64.8427 13.1143 64.3716 13.2423 63.9 13.2C62.6 13.2 61.5 12.6 61.5 10.6C61.4709 10.2861 61.5097 9.96965 61.6136 9.67205C61.7175 9.37445 61.8842 9.10266 62.1023 8.87507C62.3204 8.64749 62.5848 8.46943 62.8777 8.35296C63.1706 8.23648 63.4852 8.18432 63.8 8.19999C64.7 8.19999 66 8.59998 66 10.8V11H62.7C62.6771 11.1543 62.6889 11.3117 62.7346 11.4609C62.7803 11.61 62.8587 11.7471 62.9641 11.8621C63.0695 11.977 63.1992 12.0671 63.3438 12.1255C63.4885 12.184 63.6443 12.2094 63.8 12.2C63.9693 12.2135 64.1385 12.1721 64.2826 12.0821C64.4266 11.9921 64.5379 11.8581 64.6 11.7H66ZM64.8 10.2C64.7 9.39999 64.2 9.19999 63.8 9.19999C63.2 9.19999 62.9 9.59999 62.8 10.2H64.8Z" fill="white"/>
<path d="M73.3 12.1C73.3 12.7 73.4 12.8 73.6 12.8V13H72.2C72.11 12.8137 72.0753 12.6054 72.1 12.4C71.9169 12.6199 71.6876 12.7967 71.4283 12.9177C71.169 13.0387 70.8861 13.101 70.6 13.1C70.4074 13.1161 70.2136 13.0917 70.031 13.0283C69.8484 12.965 69.6811 12.8642 69.5399 12.7323C69.3986 12.6004 69.2865 12.4405 69.2107 12.2627C69.135 12.0849 69.0972 11.8932 69.1 11.7C69.0873 11.3156 69.2276 10.9418 69.49 10.6607C69.7524 10.3795 70.1156 10.2138 70.5 10.2L71.6 10C71.6538 10.0053 71.7082 9.99857 71.7591 9.98033C71.81 9.9621 71.8563 9.9328 71.8946 9.89455C71.9328 9.8563 71.9621 9.81004 71.9803 9.75911C71.9986 9.70818 72.0053 9.65384 72 9.6C72 9.1 71.5 9 71.2 9C70.6 9 70.5 9.4 70.4 9.7H69.2C69.3 8.2 70.4 8 71.3 8C72 8 73.2 8.2 73.2 9.4V12.1H73.3ZM72 10.7C71.9 10.8 71.7 10.9 71.1 11C70.6 11.1 70.2 11.2 70.2 11.7C70.1966 11.7797 70.2098 11.8592 70.2388 11.9336C70.2677 12.0079 70.3118 12.0754 70.3682 12.1318C70.4246 12.1882 70.4921 12.2323 70.5664 12.2612C70.6408 12.2902 70.7203 12.3034 70.8 12.3C71.0645 12.3231 71.3276 12.2419 71.5331 12.0737C71.7386 11.9056 71.8702 11.6638 71.9 11.4V10.7H72Z" fill="white"/>
<path d="M78.7 8.3V12.8C78.7 13.6 78.6 15 76.3 15C75.3 15 74.3 14.6 74.2 13.6H75.6C75.7 13.8 75.8 14.1 76.5 14.1C77.2 14.1 77.5 13.8 77.5 13V12.4C77.3877 12.6412 77.2005 12.8397 76.9662 12.9659C76.732 13.092 76.4632 13.1391 76.2 13.1C75 13.1 74.1 12.3 74.1 10.6C74.1 8.9 75 8.1 76.1 8.1C76.3856 8.08435 76.6697 8.15152 76.918 8.29344C77.1664 8.43536 77.3685 8.64599 77.5 8.9V8.2H78.7V8.3ZM76.4 12C77.3 12 77.5 11.3 77.5 10.6C77.5 9.8 77.1 9.2 76.4 9.2C75.9 9.2 75.4 9.5 75.4 10.7C75.4 11.3 75.6 12 76.4 12Z" fill="white"/>
<path d="M82 13.2C81.6713 13.2184 81.3426 13.1655 81.0363 13.045C80.73 12.9244 80.4534 12.7391 80.2254 12.5016C79.9974 12.2642 79.8235 11.9802 79.7156 11.6692C79.6076 11.3583 79.5682 11.0276 79.6 10.7C79.6 10.0635 79.8529 9.45302 80.3029 9.00293C80.753 8.55284 81.3635 8.29999 82 8.29999C82.6365 8.29999 83.247 8.55284 83.6971 9.00293C84.1472 9.45302 84.4 10.0635 84.4 10.7C84.4236 11.0258 84.3784 11.353 84.2675 11.6603C84.1565 11.9676 83.9823 12.2481 83.7561 12.4838C83.5298 12.7195 83.2566 12.905 82.9541 13.0284C82.6516 13.1518 82.3265 13.2102 82 13.2ZM82 9.19999C81 9.19999 80.8 9.99999 80.8 10.7C80.8 11.4 81 12.2 82 12.2C83 12.2 83.2 11.4 83.2 10.7C83.2 9.99999 82.9 9.19999 82 9.19999Z" fill="white"/>
<path d="M85.3 8.30001H86.5V9.10001C86.8 8.60001 87 8.10001 87.8 8.10001H88V9.40001H87.6C86.6 9.40001 86.4 10 86.4 10.5V13H85.1V8.30001H85.3Z" fill="white"/>
<path d="M92.5 12.1C92.5 12.7 92.6 12.8 92.8 12.8V13H91.4C91.31 12.8137 91.2753 12.6054 91.3 12.4C91.1169 12.6199 90.8876 12.7967 90.6283 12.9177C90.369 13.0387 90.0861 13.101 89.8 13.1C89.6074 13.1161 89.4136 13.0917 89.231 13.0283C89.0484 12.965 88.8811 12.8642 88.7398 12.7323C88.5986 12.6004 88.4864 12.4405 88.4107 12.2627C88.3349 12.0849 88.2972 11.8932 88.3 11.7C88.2873 11.3156 88.4275 10.9418 88.69 10.6607C88.9524 10.3795 89.3156 10.2138 89.7 10.2L90.8 10C90.8538 10.0053 90.9082 9.99857 90.9591 9.98033C91.01 9.9621 91.0563 9.9328 91.0945 9.89455C91.1328 9.8563 91.1621 9.81004 91.1803 9.75911C91.1986 9.70818 91.2053 9.65384 91.2 9.6C91.2 9.1 90.7 9 90.4 9C89.8 9 89.7 9.4 89.6 9.7H88.4C88.5 8.2 89.6 8 90.5 8C91.2 8 92.4 8.2 92.4 9.4V12.1H92.5ZM91.2 10.7C91.1 10.8 90.9 10.9 90.3 11C89.8 11.1 89.4 11.2 89.4 11.7C89.3966 11.7797 89.4098 11.8592 89.4387 11.9336C89.4677 12.0079 89.5118 12.0754 89.5682 12.1318C89.6246 12.1882 89.6921 12.2323 89.7664 12.2612C89.8407 12.2902 89.9203 12.3034 90 12.3C90.2645 12.3231 90.5275 12.2419 90.733 12.0737C90.9385 11.9056 91.0702 11.6638 91.1 11.4V10.7H91.2Z" fill="white"/>
<path d="M100.4 13.1H99.1V10.2C99.1 9.80001 99.1 9.30001 98.3 9.30001C98.1587 9.29521 98.0179 9.32122 97.8876 9.37623C97.7573 9.43124 97.6406 9.51394 97.5454 9.61859C97.4503 9.72325 97.3791 9.84735 97.3367 9.98228C97.2943 10.1172 97.2818 10.2598 97.3 10.4V13.1H96V8.30001H97.2V9.00001C97.3315 8.74599 97.5336 8.53537 97.782 8.39345C98.0303 8.25153 98.3144 8.18436 98.6 8.20001C98.8202 8.17779 99.0426 8.20311 99.2522 8.27425C99.4618 8.3454 99.6536 8.46071 99.8148 8.6124C99.976 8.76409 100.103 8.94862 100.186 9.15351C100.27 9.35839 100.309 9.57886 100.3 9.80001V13.1H100.4Z" fill="white"/>
<path d="M105.5 12.1C105.5 12.7 105.6 12.8 105.8 12.8V13H104.4C104.31 12.8137 104.275 12.6054 104.3 12.4C104.117 12.6199 103.888 12.7967 103.628 12.9177C103.369 13.0387 103.086 13.101 102.8 13.1C102.607 13.1161 102.414 13.0917 102.231 13.0283C102.048 12.965 101.881 12.8642 101.74 12.7323C101.599 12.6004 101.486 12.4405 101.411 12.2627C101.335 12.0849 101.297 11.8932 101.3 11.7C101.287 11.3156 101.428 10.9418 101.69 10.6607C101.952 10.3795 102.316 10.2138 102.7 10.2L103.8 10C103.854 10.0053 103.908 9.99857 103.959 9.98033C104.01 9.9621 104.056 9.9328 104.095 9.89455C104.133 9.8563 104.162 9.81004 104.18 9.75911C104.199 9.70818 104.205 9.65384 104.2 9.6C104.2 9.1 103.7 9 103.4 9C102.8 9 102.7 9.4 102.6 9.7H101.4C101.5 8.2 102.6 8 103.5 8C104.2 8 105.4 8.2 105.4 9.4V12.1H105.5ZM104.2 10.7C104.1 10.8 103.9 10.9 103.3 11C102.8 11.1 102.4 11.2 102.4 11.7C102.397 11.7797 102.41 11.8592 102.439 11.9336C102.468 12.0079 102.512 12.0754 102.568 12.1318C102.625 12.1882 102.692 12.2323 102.766 12.2612C102.841 12.2902 102.92 12.3034 103 12.3C103.264 12.3231 103.528 12.2419 103.733 12.0737C103.939 11.9056 104.07 11.6638 104.1 11.4V10.7H104.2Z" fill="white"/>
</svg>
