<svg width="24" height="24" viewBox="0 0 24 24" fill="none" xmlns="http://www.w3.org/2000/svg">
<path d="M13.4 21.5H9.4C9.1 21.5 8.9 21.3 8.9 21V12.3H7C6.7 12.3 6.5 12.1 6.5 11.8V8.6C6.5 8.3 6.7 8.1 7 8.1H8.9V6.9C8.9 5.9 9.2 2.5 13.1 2.5H16.6C16.9 2.5 17.1 2.7 17.1 3V6.2C17.1 6.5 16.9 6.7 16.6 6.7H14.2C14.1 6.7 14 6.7 14 6.8C13.9 6.9 13.9 6.9 13.9 7V8.1H16.8C16.9 8.1 17.1 8.2 17.2 8.3C17.3 8.4 17.3 8.5 17.3 8.7L17 11.9C17 12.2 16.8 12.3 16.5 12.3H13.9V21C13.9 21.3 13.7 21.5 13.4 21.5ZM9.9 20.5H12.9V11.8C12.9 11.5 13.1 11.3 13.4 11.3H16L16.2 9.1H13.4C13.1 9.1 12.9 8.9 12.9 8.6V7.1C12.9 6.8 13 6.4 13.2 6.1C13.4 5.8 13.8 5.7 14.2 5.7H16.1V3.5H13.1C10.3 3.5 9.9 5.6 9.9 6.9V8.6C9.9 8.9 9.7 9.1 9.4 9.1H7.5V11.3H9.4C9.7 11.3 9.9 11.5 9.9 11.8V20.5Z" fill="#333333"/>
</svg>
