<svg width="135" height="40" viewBox="0 0 135 40" fill="none" xmlns="http://www.w3.org/2000/svg">
<path d="M130 0H5C2.23858 0 0 2.23858 0 5V35C0 37.7614 2.23858 40 5 40H130C132.761 40 135 37.7614 135 35V5C135 2.23858 132.761 0 130 0Z" fill="black"/>
<path d="M68.136 21.752C67.2953 21.7542 66.4741 22.0054 65.7762 22.4741C65.0782 22.9427 64.5348 23.6077 64.2146 24.385C63.8944 25.1624 63.8117 26.0172 63.9771 26.8414C64.1424 27.6657 64.5483 28.4225 65.1436 29.0162C65.7388 29.6099 66.4966 30.0138 67.3213 30.1771C68.146 30.3403 69.0006 30.2554 69.7771 29.9332C70.5536 29.611 71.2172 29.0658 71.684 28.3667C72.1508 27.6675 72.4 26.8457 72.4 26.005C72.4083 25.4433 72.3035 24.8856 72.092 24.3652C71.8805 23.8447 71.5666 23.3721 71.1688 22.9753C70.7711 22.5786 70.2976 22.2659 69.7766 22.0557C69.2556 21.8456 68.6977 21.7423 68.136 21.752ZM68.136 28.582C67.6184 28.6189 67.1016 28.4992 66.653 28.2383C66.2044 27.9775 65.8448 27.5876 65.6209 27.1194C65.397 26.6513 65.3192 26.1266 65.3977 25.6136C65.4763 25.1007 65.7074 24.6232 66.0611 24.2435C66.4147 23.8637 66.8745 23.5993 67.3806 23.4845C67.8867 23.3698 68.4156 23.4101 68.8985 23.6001C69.3813 23.7902 69.7958 24.1213 70.0879 24.5502C70.3799 24.9791 70.5361 25.4861 70.536 26.005C70.5517 26.3328 70.5017 26.6604 70.3888 26.9685C70.276 27.2766 70.1027 27.5591 69.879 27.7992C69.6554 28.0394 69.386 28.2323 69.0866 28.3667C68.7873 28.5012 68.4641 28.5744 68.136 28.582ZM58.823 21.752C57.9825 21.7552 57.1618 22.0073 56.4645 22.4765C55.7672 22.9458 55.2246 23.6111 54.9052 24.3885C54.5857 25.1659 54.5038 26.0205 54.6697 26.8445C54.8356 27.6684 55.2419 28.4247 55.8373 29.0179C56.4328 29.6111 57.1906 30.0146 58.0151 30.1774C58.8397 30.3402 59.694 30.2551 60.4702 29.9327C61.2464 29.6103 61.9097 29.0652 62.3763 28.3662C62.843 27.6671 63.092 26.8455 63.092 26.005C63.1003 25.4428 62.9954 24.8848 62.7836 24.364C62.5718 23.8432 62.2574 23.3703 61.8591 22.9735C61.4608 22.5767 60.9867 22.2641 60.4652 22.0542C59.9436 21.8444 59.3851 21.7416 58.823 21.752ZM58.823 28.582C58.3054 28.6189 57.7886 28.4992 57.34 28.2383C56.8914 27.9775 56.5318 27.5876 56.3079 27.1194C56.084 26.6513 56.0062 26.1266 56.0847 25.6136C56.1632 25.1007 56.3944 24.6232 56.7481 24.2435C57.1017 23.8637 57.5615 23.5993 58.0676 23.4845C58.5737 23.3698 59.1026 23.4101 59.5855 23.6001C60.0683 23.7902 60.4828 24.1213 60.7749 24.5502C61.0669 24.9791 61.2231 25.4861 61.223 26.005C61.2387 26.3328 61.1887 26.6604 61.0758 26.9685C60.963 27.2766 60.7897 27.5591 60.566 27.7992C60.3424 28.0394 60.073 28.2323 59.7736 28.3667C59.4743 28.5012 59.1511 28.5744 58.823 28.582ZM47.744 23.057V24.857H52.061C51.9989 25.703 51.6528 26.5032 51.079 27.128C50.6463 27.569 50.126 27.9145 49.5515 28.142C48.9771 28.3696 48.3613 28.4741 47.744 28.449C46.471 28.449 45.2501 27.9433 44.3499 27.0431C43.4497 26.1429 42.944 24.922 42.944 23.649C42.944 22.376 43.4497 21.1551 44.3499 20.2549C45.2501 19.3547 46.471 18.849 47.744 18.849C48.9573 18.8334 50.1275 19.2978 51 20.141L52.273 18.868C51.6774 18.2787 50.9703 17.8141 50.193 17.5014C49.4156 17.1887 48.5838 17.0342 47.746 17.047C46.8717 17.0362 46.004 17.1991 45.1931 17.5263C44.3823 17.8534 43.6445 18.3383 43.0224 18.9527C42.4003 19.5671 41.9065 20.299 41.5694 21.1057C41.2323 21.9125 41.0587 22.7781 41.0587 23.6525C41.0587 24.5268 41.2323 25.3925 41.5694 26.1993C41.9065 27.006 42.4003 27.7378 43.0224 28.3523C43.6445 28.9667 44.3823 29.4516 45.1931 29.7787C46.004 30.1058 46.8717 30.2688 47.746 30.258C48.6014 30.2926 49.4545 30.1448 50.2484 29.8245C51.0424 29.5041 51.7591 29.0186 52.351 28.4C53.4035 27.2513 53.9645 25.7362 53.914 24.179C53.9173 23.801 53.8838 23.4235 53.814 23.052L47.744 23.057ZM93.052 24.457C92.7963 23.6867 92.3097 23.0138 91.6583 22.5297C91.0069 22.0456 90.2223 21.7737 89.411 21.751C88.8645 21.7543 88.3242 21.8684 87.8231 22.0865C87.3219 22.3046 86.8702 22.622 86.4952 23.0197C86.1203 23.4174 85.8299 23.887 85.6416 24.4001C85.4534 24.9132 85.3712 25.4592 85.4 26.005C85.3877 26.5642 85.4883 27.1201 85.6956 27.6395C85.903 28.159 86.2129 28.6313 86.6069 29.0283C87.0009 29.4253 87.4709 29.7387 87.9887 29.95C88.5066 30.1613 89.0618 30.2661 89.621 30.258C90.3216 30.2619 91.0123 30.0917 91.6308 29.7627C92.2494 29.4336 92.7766 28.9561 93.165 28.373L91.715 27.406C91.4977 27.7666 91.1905 28.0646 90.8234 28.2708C90.4563 28.4769 90.042 28.5842 89.621 28.582C89.1877 28.5986 88.7594 28.4847 88.3916 28.255C88.0237 28.0254 87.7333 27.6906 87.558 27.294L93.245 24.941L93.052 24.457ZM87.252 25.875C87.2328 25.5659 87.2754 25.2562 87.3772 24.9637C87.479 24.6713 87.6379 24.402 87.8449 24.1717C88.0518 23.9413 88.3025 23.7544 88.5823 23.6219C88.8622 23.4894 89.1657 23.414 89.475 23.4C89.7975 23.3783 90.1193 23.4521 90.4001 23.6121C90.6809 23.7722 90.9083 24.0114 91.054 24.3L87.252 25.875ZM82.629 30H84.5V17.5H82.629V30ZM79.567 22.7H79.5C79.2159 22.3915 78.8691 22.1472 78.483 21.9833C78.0969 21.8195 77.6803 21.74 77.261 21.75C76.1649 21.7975 75.1296 22.2664 74.3708 23.0588C73.612 23.8512 73.1885 24.9059 73.1885 26.003C73.1885 27.1001 73.612 28.1548 74.3708 28.9472C75.1296 29.7396 76.1649 30.2084 77.261 30.256C77.682 30.2671 78.1004 30.1863 78.4871 30.0193C78.8738 29.8523 79.2194 29.6031 79.5 29.289H79.564V29.9C79.564 31.527 78.695 32.4 77.293 32.4C76.8258 32.3887 76.3724 32.2387 75.9908 31.9688C75.6091 31.699 75.3164 31.3217 75.15 30.885L73.523 31.562C73.8297 32.3087 74.3524 32.9468 75.0241 33.3945C75.6957 33.8422 76.4858 34.0792 77.293 34.075C79.484 34.075 81.337 32.786 81.337 29.645V22.009H79.567V22.7ZM77.425 28.58C76.7796 28.5245 76.1785 28.229 75.7405 27.7517C75.3025 27.2745 75.0595 26.6503 75.0595 26.0025C75.0595 25.3547 75.3025 24.7305 75.7405 24.2533C76.1785 23.776 76.7796 23.4805 77.425 23.425C77.7467 23.4407 78.062 23.5209 78.352 23.661C78.6421 23.8011 78.9009 23.9981 79.1132 24.2404C79.3255 24.4826 79.4869 24.7651 79.5877 25.071C79.6885 25.3769 79.7267 25.7 79.7 26.021C79.7252 26.3399 79.6857 26.6606 79.5839 26.9638C79.4821 27.2671 79.3201 27.5467 79.1077 27.7858C78.8953 28.025 78.6367 28.2187 78.3476 28.3556C78.0584 28.4924 77.7446 28.5694 77.425 28.582V28.58ZM101.806 17.5H97.335V30H99.2V25.264H101.806C102.333 25.2921 102.861 25.2125 103.356 25.03C103.852 24.8476 104.305 24.5661 104.688 24.2029C105.071 23.8396 105.376 23.4021 105.585 22.917C105.793 22.4319 105.901 21.9095 105.901 21.3815C105.901 20.8535 105.793 20.331 105.585 19.846C105.376 19.3609 105.071 18.9234 104.688 18.5601C104.305 18.1968 103.852 17.9154 103.356 17.733C102.861 17.5505 102.333 17.4709 101.806 17.499V17.5ZM101.854 23.525H99.2V19.239H101.854C102.139 19.2328 102.423 19.2837 102.688 19.3886C102.954 19.4935 103.195 19.6503 103.399 19.8499C103.603 20.0494 103.765 20.2877 103.876 20.5507C103.986 20.8137 104.043 21.0962 104.043 21.3815C104.043 21.6668 103.986 21.9493 103.876 22.2123C103.765 22.4753 103.603 22.7135 103.399 22.9131C103.195 23.1127 102.954 23.2695 102.688 23.3744C102.423 23.4793 102.139 23.5302 101.854 23.524V23.525ZM113.386 21.73C112.705 21.6902 112.027 21.85 111.436 22.1898C110.844 22.5296 110.365 23.0347 110.056 23.643L111.713 24.335C111.877 24.0329 112.126 23.7853 112.429 23.6224C112.732 23.4595 113.075 23.3885 113.418 23.418C113.891 23.3727 114.363 23.5165 114.731 23.818C115.098 24.1194 115.332 24.5541 115.38 25.027V25.155C114.781 24.8368 114.112 24.6713 113.434 24.673C111.649 24.673 109.834 25.654 109.834 27.487C109.851 27.8731 109.946 28.2517 110.112 28.6005C110.279 28.9494 110.513 29.2613 110.802 29.5178C111.092 29.7743 111.429 29.9702 111.795 30.0939C112.161 30.2176 112.549 30.2666 112.934 30.238C113.404 30.2656 113.873 30.1667 114.292 29.9516C114.71 29.7365 115.064 29.4131 115.315 29.015H115.379V29.98H117.179V25.186C117.181 22.967 115.525 21.729 113.386 21.729V21.73ZM113.161 28.581C112.549 28.581 111.697 28.276 111.697 27.52C111.697 26.555 112.758 26.185 113.675 26.185C114.269 26.1702 114.856 26.3145 115.375 26.603C115.306 27.1441 115.044 27.6421 114.638 28.0054C114.231 28.3687 113.706 28.5728 113.161 28.58V28.581ZM123.743 22L121.604 27.42H121.54L119.32 22H117.31L120.639 29.575L118.739 33.789H120.685L125.818 22H123.743ZM106.936 30H108.8V17.5H106.934L106.936 30Z" fill="white"/>
<path d="M10.435 7.53803C10.1078 7.93047 9.94253 8.43296 9.973 8.94303V31.059C9.94233 31.5691 10.1076 32.0717 10.435 32.464L10.509 32.536L22.9 20.147V19.855L10.509 7.46503L10.435 7.53803Z" fill="url(#paint0_linear)"/>
<path d="M27.028 24.279L22.9 20.147V19.855L27.031 15.724L27.124 15.778L32.017 18.558C33.417 19.352 33.417 20.651 32.017 21.445L27.124 24.225L27.028 24.279Z" fill="url(#paint1_linear)"/>
<path d="M27.122 24.225L22.9 20L10.435 32.464C10.7199 32.7153 11.0838 32.8589 11.4635 32.8701C11.8432 32.8812 12.2148 32.7591 12.514 32.525L27.122 24.225Z" fill="url(#paint2_linear)"/>
<path d="M27.122 15.777L12.514 7.47701C12.2148 7.24287 11.8432 7.12078 11.4635 7.13193C11.0838 7.14307 10.7199 7.28673 10.435 7.53801L22.9 20L27.122 15.777Z" fill="url(#paint3_linear)"/>
<path opacity="0.2" d="M27.029 24.132L12.514 32.379C12.2268 32.5972 11.8765 32.7163 11.5158 32.7183C11.1551 32.7203 10.8036 32.6051 10.514 32.39L10.439 32.464L10.513 32.537C10.8026 32.7521 11.1542 32.8673 11.5148 32.8653C11.8755 32.8633 12.2258 32.7442 12.513 32.526L27.121 24.226L27.029 24.132Z" fill="black"/>
<path opacity="0.12" d="M10.435 32.318C10.1076 31.9257 9.94233 31.4231 9.973 30.913V31.06C9.94311 31.5685 10.1083 32.0692 10.435 32.46L10.51 32.386L10.435 32.318Z" fill="black"/>
<path opacity="0.12" d="M32.015 21.3L27.029 24.133L27.122 24.226L32.015 21.446C32.3031 21.3208 32.5523 21.1206 32.7367 20.8663C32.921 20.6119 33.0337 20.3128 33.063 20C33.0016 20.2833 32.8749 20.5484 32.693 20.7741C32.511 20.9998 32.2789 21.1799 32.015 21.3Z" fill="black"/>
<path opacity="0.25" d="M12.514 7.62302L32.014 18.703C32.2777 18.8227 32.5098 19.0022 32.692 19.2274C32.8741 19.4526 33.0011 19.7171 33.063 20C33.0336 19.6876 32.9208 19.3887 32.7365 19.1347C32.5521 18.8807 32.3029 18.6809 32.015 18.556L12.515 7.47602C11.115 6.68202 9.974 7.34202 9.974 8.94202V9.08902C9.973 7.48902 11.116 6.82902 12.514 7.62302Z" fill="white"/>
<path d="M41.161 12.732V6.732H43C43.4062 6.71287 43.8121 6.77699 44.1926 6.92041C44.5732 7.06382 44.9204 7.28352 45.213 7.566C45.4908 7.85199 45.7075 8.19148 45.85 8.56383C45.9925 8.93618 46.0578 9.33362 46.042 9.732C46.0577 10.1304 45.9924 10.5278 45.8499 10.9001C45.7073 11.2724 45.4907 11.6119 45.213 11.898C44.9204 12.1805 44.5732 12.4002 44.1926 12.5436C43.8121 12.687 43.4062 12.7511 43 12.732H41.161ZM41.931 11.995H43C43.3005 12.0101 43.6011 11.9648 43.8838 11.8618C44.1665 11.7587 44.4257 11.6 44.646 11.395C44.8562 11.1737 45.0187 10.9115 45.1233 10.6247C45.2279 10.3379 45.2724 10.0327 45.254 9.728C45.2801 9.4252 45.2398 9.12034 45.1358 8.83475C45.0318 8.54916 44.8668 8.28972 44.6521 8.07458C44.4374 7.85943 44.1783 7.69377 43.893 7.58917C43.6076 7.48457 43.3029 7.44356 43 7.469H41.931V11.995Z" fill="white" stroke="white" stroke-width="0.2" stroke-miterlimit="10"/>
<path d="M47.12 12.732V6.73201H47.89V12.732H47.12Z" fill="white" stroke="white" stroke-width="0.2" stroke-miterlimit="10"/>
<path d="M50.957 12.866C50.4972 12.8585 50.051 12.7094 49.679 12.439C49.2643 12.1571 48.9723 11.7281 48.862 11.239L49.562 10.955C49.6428 11.2795 49.8228 11.5707 50.077 11.788C50.3165 12.0062 50.629 12.1271 50.953 12.127C51.2604 12.1361 51.5623 12.0436 51.812 11.864C51.9257 11.7831 52.0177 11.6752 52.0796 11.5501C52.1416 11.425 52.1716 11.2865 52.167 11.147C52.1748 10.9988 52.1466 10.8508 52.0848 10.7158C52.023 10.5809 51.9294 10.4629 51.812 10.372C51.4679 10.1402 51.0867 9.96877 50.685 9.865C50.2379 9.7444 49.8248 9.52192 49.478 9.215C49.3424 9.08327 49.2358 8.92468 49.165 8.74938C49.0943 8.57409 49.0609 8.38595 49.067 8.197C49.0671 7.98424 49.1129 7.77398 49.2012 7.58042C49.2895 7.38686 49.4184 7.2145 49.579 7.075C49.9432 6.74723 50.4215 6.57558 50.911 6.597C51.3559 6.57696 51.7941 6.71159 52.151 6.978C52.4367 7.18748 52.6527 7.47808 52.771 7.812L52.071 8.105C52.0055 7.89406 51.8749 7.70925 51.698 7.577C51.4751 7.41803 51.208 7.333 50.9342 7.3339C50.6604 7.3348 50.3938 7.42157 50.172 7.582C50.0744 7.65203 49.995 7.7444 49.9403 7.85139C49.8857 7.95837 49.8575 8.07688 49.858 8.197C49.8581 8.30745 49.8843 8.41631 49.9346 8.51469C49.9848 8.61306 50.0576 8.69815 50.147 8.763C50.405 8.94877 50.6928 9.08912 50.998 9.178C51.2503 9.25645 51.498 9.34893 51.74 9.455C51.9519 9.5523 52.153 9.67162 52.34 9.811C52.5391 9.9522 52.6979 10.1428 52.801 10.364C52.9092 10.6046 52.9625 10.8662 52.957 11.13C52.9617 11.4008 52.8999 11.6686 52.777 11.91C52.6655 12.1289 52.5008 12.3163 52.298 12.455C51.9009 12.7227 51.4329 12.8655 50.954 12.865L50.957 12.866Z" fill="white" stroke="white" stroke-width="0.2" stroke-miterlimit="10"/>
<path d="M54.837 12.732H54.066V6.732H56.111C56.5996 6.72452 57.0722 6.90618 57.43 7.239C57.606 7.40199 57.7465 7.59961 57.8425 7.81944C57.9386 8.03928 57.9882 8.2766 57.9882 8.5165C57.9882 8.75641 57.9386 8.99372 57.8425 9.21356C57.7465 9.4334 57.606 9.63101 57.43 9.794C57.0726 10.1276 56.5998 10.3096 56.111 10.302H54.837V12.732ZM54.837 9.564H56.128C56.2738 9.57019 56.4192 9.54418 56.5538 9.48784C56.6885 9.4315 56.809 9.3462 56.907 9.238C57.0948 9.04497 57.1998 8.7863 57.1998 8.517C57.1998 8.24771 57.0948 7.98903 56.907 7.796C56.8091 7.68762 56.6886 7.60214 56.554 7.54562C56.4193 7.4891 56.2739 7.46294 56.128 7.469H54.837V9.564Z" fill="white" stroke="white" stroke-width="0.2" stroke-miterlimit="10"/>
<path d="M63.866 11.957C63.2818 12.5391 62.4907 12.8659 61.666 12.8659C60.8413 12.8659 60.0502 12.5391 59.466 11.957C58.8989 11.355 58.5831 10.5591 58.5831 9.73201C58.5831 8.90492 58.8989 8.10905 59.466 7.50701C59.7546 7.21759 60.0975 6.98796 60.475 6.83129C60.8525 6.67461 61.2573 6.59396 61.666 6.59396C62.0747 6.59396 62.4795 6.67461 62.857 6.83129C63.2345 6.98796 63.5774 7.21759 63.866 7.50701C64.4349 8.10736 64.7519 8.90295 64.7519 9.73001C64.7519 10.5571 64.4349 11.3527 63.866 11.953V11.957ZM60.036 11.457C60.4687 11.8886 61.0549 12.131 61.666 12.131C62.2771 12.131 62.8633 11.8886 63.296 11.457C63.7246 10.9859 63.9621 10.3719 63.9621 9.73501C63.9621 9.09812 63.7246 8.48412 63.296 8.01301C62.8636 7.58091 62.2773 7.33818 61.666 7.33818C61.0547 7.33818 60.4684 7.58091 60.036 8.01301C59.6074 8.48412 59.3699 9.09812 59.3699 9.73501C59.3699 10.3719 59.6074 10.9859 60.036 11.457Z" fill="white" stroke="white" stroke-width="0.2" stroke-miterlimit="10"/>
<path d="M65.832 12.732V6.73201H66.77L69.686 11.4H69.719L69.686 10.244V6.73201H70.458V12.732H69.653L66.6 7.83801H66.567L66.6 9.00001V12.737L65.832 12.732Z" fill="white" stroke="white" stroke-width="0.2" stroke-miterlimit="10"/>
<path d="M71.832 12.732V6.732H72.602V12.732H71.832ZM72.552 6.263H71.881L72.318 5.19H73.156L72.552 6.263Z" fill="white" stroke="white" stroke-width="0.2" stroke-miterlimit="10"/>
<path d="M75.46 12.732L73.348 6.732H74.2L75.845 11.6H75.879L77.588 6.731H78.443L76.264 12.731L75.46 12.732Z" fill="white" stroke="white" stroke-width="0.2" stroke-miterlimit="10"/>
<path d="M82.818 7.469H80.086V9.369H82.549V10.089H80.086V12H82.818V12.737H79.318V6.737H82.818V7.469Z" fill="white" stroke="white" stroke-width="0.2" stroke-miterlimit="10"/>
<path d="M84.025 12.732V6.73201H84.8V12H87.4V12.737L84.025 12.732Z" fill="white" stroke="white" stroke-width="0.2" stroke-miterlimit="10"/>
<path d="M90.377 12.732V6.73201H91.315L94.231 11.399H94.264L94.231 10.243V6.73201H95V12.732H94.2L91.149 7.83801H91.116L91.147 9.00001V12.737L90.377 12.732Z" fill="white" stroke="white" stroke-width="0.2" stroke-miterlimit="10"/>
<path d="M101.282 11.957C100.698 12.5391 99.9067 12.8659 99.082 12.8659C98.2573 12.8659 97.4662 12.5391 96.882 11.957C96.3149 11.355 95.9991 10.5591 95.9991 9.73201C95.9991 8.90492 96.3149 8.10905 96.882 7.50701C97.1706 7.21759 97.5135 6.98796 97.891 6.83129C98.2686 6.67461 98.6733 6.59396 99.082 6.59396C99.4907 6.59396 99.8955 6.67461 100.273 6.83129C100.65 6.98796 100.993 7.21759 101.282 7.50701C101.851 8.10736 102.168 8.90295 102.168 9.73001C102.168 10.5571 101.851 11.3527 101.282 11.953V11.957ZM97.452 11.457C97.8847 11.8886 98.4709 12.131 99.082 12.131C99.6931 12.131 100.279 11.8886 100.712 11.457C101.141 10.9862 101.379 10.3721 101.379 9.73501C101.379 9.09792 101.141 8.48381 100.712 8.01301C100.28 7.58091 99.6933 7.33818 99.082 7.33818C98.4707 7.33818 97.8844 7.58091 97.452 8.01301C97.0234 8.48412 96.7859 9.09812 96.7859 9.73501C96.7859 10.3719 97.0234 10.9859 97.452 11.457Z" fill="white" stroke="white" stroke-width="0.2" stroke-miterlimit="10"/>
<defs>
<linearGradient id="paint0_linear" x1="21.8009" y1="173.285" x2="1.96038" y2="168.01" gradientUnits="userSpaceOnUse">
<stop stop-color="#00A0FF"/>
<stop offset="0.007" stop-color="#00A1FF"/>
<stop offset="0.26" stop-color="#00BEFF"/>
<stop offset="0.512" stop-color="#00D2FF"/>
<stop offset="0.76" stop-color="#00DFFF"/>
<stop offset="1" stop-color="#00E3FF"/>
</linearGradient>
<linearGradient id="paint1_linear" x1="33.8397" y1="161.997" x2="9.63207" y2="161.997" gradientUnits="userSpaceOnUse">
<stop stop-color="#FFE000"/>
<stop offset="0.409" stop-color="#FFBD00"/>
<stop offset="0.775" stop-color="#FFA500"/>
<stop offset="1" stop-color="#FF9C00"/>
</linearGradient>
<linearGradient id="paint2_linear" x1="24.8192" y1="159.815" x2="8.88559" y2="132.989" gradientUnits="userSpaceOnUse">
<stop stop-color="#FF3A44"/>
<stop offset="1" stop-color="#C31162"/>
</linearGradient>
<linearGradient id="paint3_linear" x1="7.29784" y1="181.928" x2="14.4172" y2="169.953" gradientUnits="userSpaceOnUse">
<stop stop-color="#32A071"/>
<stop offset="0.068" stop-color="#2DA771"/>
<stop offset="0.476" stop-color="#15CF74"/>
<stop offset="0.801" stop-color="#06E775"/>
<stop offset="1" stop-color="#00F076"/>
</linearGradient>
</defs>
</svg>
