<?xml version="1.0" encoding="UTF-8" standalone="no"?>
<svg
   xmlns:dc="http://purl.org/dc/elements/1.1/"
   xmlns:cc="http://creativecommons.org/ns#"
   xmlns:rdf="http://www.w3.org/1999/02/22-rdf-syntax-ns#"
   xmlns:svg="http://www.w3.org/2000/svg"
   xmlns="http://www.w3.org/2000/svg"
   xmlns:sodipodi="http://sodipodi.sourceforge.net/DTD/sodipodi-0.dtd"
   xmlns:inkscape="http://www.inkscape.org/namespaces/inkscape"
   version="1.1"
   id="Capa_1"
   x="0px"
   y="0px"
   viewBox="0 0 264.09464 274.93433"
   xml:space="preserve"
   sodipodi:docname="icone-transporte.svg"
   width="264.09464"
   height="274.93433"
   inkscape:version="1.0.2-2 (e86c870879, 2021-01-15)"><metadata
   id="metadata45"><rdf:RDF><cc:Work
       rdf:about=""><dc:format>image/svg+xml</dc:format><dc:type
         rdf:resource="http://purl.org/dc/dcmitype/StillImage" /><dc:title></dc:title></cc:Work></rdf:RDF></metadata><defs
   id="defs43"><clipPath
     clipPathUnits="userSpaceOnUse"
     id="clipPath874"><path
       style="fill:none;stroke:#000000;stroke-width:1px;stroke-linecap:butt;stroke-linejoin:miter;stroke-opacity:1"
       d="M 69.472653,74.399792 69.965367,342.92884 332.58185,344.8997 333.56728,69.965367 Z"
       id="path876" /></clipPath></defs><sodipodi:namedview
   pagecolor="#ffffff"
   bordercolor="#666666"
   borderopacity="1"
   objecttolerance="10"
   gridtolerance="10"
   guidetolerance="10"
   inkscape:pageopacity="0"
   inkscape:pageshadow="2"
   inkscape:window-width="1920"
   inkscape:window-height="1001"
   id="namedview41"
   showgrid="false"
   fit-margin-top="0"
   fit-margin-left="0"
   fit-margin-right="0"
   fit-margin-bottom="0"
   inkscape:zoom="2.0295756"
   inkscape:cx="128.02735"
   inkscape:cy="113.70132"
   inkscape:window-x="-9"
   inkscape:window-y="-9"
   inkscape:window-maximized="1"
   inkscape:current-layer="Capa_1" />
<g
   id="g8"
   clip-path="url(#clipPath874)"
   transform="translate(-69.472653,-69.965367)">
	<g
   id="g4">
		<path
   d="M 313.002,395 H 82 C 36.785,395 0,358.211 0,312.991 V 81.998 C 0,36.784 36.785,0 82,0 H 313.002 C 358.216,0 395,36.784 395,81.998 V 312.991 C 395,358.211 358.216,395 313.002,395 Z M 82,15 C 45.056,15 15,45.055 15,81.998 V 312.991 C 15,349.94 45.056,380 82,380 H 313.002 C 349.944,380 380,349.94 380,312.991 V 81.998 C 380,45.055 349.944,15 313.002,15 Z"
   id="path2" />
	</g>
	<path
   d="m 306.5,257.443 v -76.687 c 0,-1.831 -0.174,-3.659 -0.515,-5.458 l -11.723,-61.836 c -1.865,-9.833 -8.618,-18.034 -17.909,-21.752 -1.41,-0.564 -35.041,-13.822 -78.853,-13.822 -43.812,0 -77.443,13.258 -78.853,13.822 -9.293,3.718 -16.046,11.919 -17.91,21.752 l -11.721,61.836 c -0.342,1.799 -0.512,3.627 -0.512,5.458 v 76.682 c -1.187,1.363 -1.911,3.139 -1.911,5.089 v 17.067 c 0,4.284 3.473,7.758 7.758,7.758 h 15.096 v 17.723 c 0,6.649 5.39,12.038 12.039,12.038 h 17.04 c 6.649,0 12.039,-5.389 12.039,-12.038 v -17.723 h 93.87 v 17.723 c 0,6.649 5.389,12.038 12.038,12.038 h 17.04 c 6.649,0 12.038,-5.389 12.038,-12.038 v -17.723 h 15.097 c 4.284,0 7.758,-3.474 7.758,-7.758 v -17.067 c 0,-1.947 -0.722,-3.722 -1.906,-5.084 z M 180.951,93.521 h 33.098 c 4.144,0 7.5,3.357 7.5,7.499 0,4.142 -3.356,7.499 -7.5,7.499 h -33.098 c -4.143,0 -7.501,-3.357 -7.501,-7.499 0,-4.142 3.359,-7.499 7.501,-7.499 z m -41.237,160.808 c -10.282,0 -18.618,-8.336 -18.618,-18.618 0,-10.283 8.336,-18.619 18.618,-18.619 10.283,0 18.619,8.336 18.619,18.619 0,10.282 -8.336,18.618 -18.619,18.618 z m 74.335,18.519 h -33.098 c -4.143,0 -7.501,-3.357 -7.501,-7.499 0,-4.143 3.358,-7.5 7.501,-7.5 h 33.098 c 4.144,0 7.5,3.357 7.5,7.5 0,4.141 -3.357,7.499 -7.5,7.499 z m 41.236,-18.519 c -10.283,0 -18.617,-8.336 -18.617,-18.618 0,-10.283 8.334,-18.619 18.617,-18.619 10.283,0 18.62,8.336 18.62,18.619 0,10.282 -8.337,18.618 -18.62,18.618 z m -137.889,-75.486 12.027,-60.509 c 45.384,0 90.771,0 136.156,0 l 12.025,60.509 c -55.471,0 -104.737,0.001 -160.208,0 z"
   id="path6" />
</g>
<g
   id="g10"
   transform="translate(-69.472653,-69.965367)">
</g>
<g
   id="g12"
   transform="translate(-69.472653,-69.965367)">
</g>
<g
   id="g14"
   transform="translate(-69.472653,-69.965367)">
</g>
<g
   id="g16"
   transform="translate(-69.472653,-69.965367)">
</g>
<g
   id="g18"
   transform="translate(-69.472653,-69.965367)">
</g>
<g
   id="g20"
   transform="translate(-69.472653,-69.965367)">
</g>
<g
   id="g22"
   transform="translate(-69.472653,-69.965367)">
</g>
<g
   id="g24"
   transform="translate(-69.472653,-69.965367)">
</g>
<g
   id="g26"
   transform="translate(-69.472653,-69.965367)">
</g>
<g
   id="g28"
   transform="translate(-69.472653,-69.965367)">
</g>
<g
   id="g30"
   transform="translate(-69.472653,-69.965367)">
</g>
<g
   id="g32"
   transform="translate(-69.472653,-69.965367)">
</g>
<g
   id="g34"
   transform="translate(-69.472653,-69.965367)">
</g>
<g
   id="g36"
   transform="translate(-69.472653,-69.965367)">
</g>
<g
   id="g38"
   transform="translate(-69.472653,-69.965367)">
</g>
</svg>
